<?xml version="1.0" encoding="utf-8"?>
<!-- Generator: Adobe Illustrator 21.1.0, SVG Export Plug-In . SVG Version: 6.00 Build 0)  -->
<svg version="1.1" id="Layer_1" xmlns="http://www.w3.org/2000/svg" xmlns:xlink="http://www.w3.org/1999/xlink" x="0px" y="0px"
	 viewBox="0 0 500 500" style="enable-background:new 0 0 500 500;" xml:space="preserve">
<title>arrow-left</title>
<g id="_">
	<g>
		<path d="M390.8,53.1L193.9,250l196.9,196.9c6.4,6,6.7,15.9,0.7,22.3c-0.2,0.2-0.5,0.5-0.7,0.7l-25.1,25
			c-5.9,6.4-15.8,6.7-22.1,0.9c-0.3-0.3-0.6-0.6-0.9-0.9L109.2,261.5c-6.4-6-6.7-16-0.7-22.3c0.2-0.2,0.5-0.5,0.7-0.7L342.7,5
			c5.9-6.4,15.8-6.7,22.1-0.9c0.3,0.3,0.6,0.6,0.9,0.9l25.1,25c3.1,3,4.9,7.2,5,11.5C395.6,45.9,393.8,50,390.8,53.1z"/>
	</g>
</g>
</svg>
