<?xml version="1.0" encoding="utf-8"?>
<!-- Generator: Adobe Illustrator 21.1.0, SVG Export Plug-In . SVG Version: 6.00 Build 0)  -->
<svg version="1.1" id="Layer_1" xmlns="http://www.w3.org/2000/svg" xmlns:xlink="http://www.w3.org/1999/xlink" x="0px" y="0px"
	 viewBox="0 0 500 500" style="enable-background:new 0 0 500 500;" xml:space="preserve">
<title>arrow-right</title>
<g id="_">
	<g>
		<path d="M109.2,446.9L306.1,250L109.2,53.1c-3-3.1-4.8-7.2-5-11.5c0.2-4.3,1.9-8.4,5-11.5L134.3,5c3.1-3.1,7.2-4.8,11.5-5
			c4.3,0.2,8.5,1.9,11.5,5l233.5,233.5c6.4,6,6.7,16,0.7,22.3c-0.2,0.2-0.5,0.5-0.7,0.7L157.3,495c-3.1,3.1-7.2,4.8-11.5,5
			c-4.3-0.2-8.4-1.9-11.5-5l-25.1-25.1c-3.1-3-4.9-7.2-5-11.5C104.4,454.1,106.2,450,109.2,446.9z"/>
	</g>
</g>
</svg>
