<?xml version="1.0" encoding="utf-8"?>
<!-- Generator: Adobe Illustrator 21.1.0, SVG Export Plug-In . SVG Version: 6.00 Build 0)  -->
<svg version="1.1" id="Layer_1" xmlns="http://www.w3.org/2000/svg" xmlns:xlink="http://www.w3.org/1999/xlink" x="0px" y="0px"
	 viewBox="0 0 500 500" style="enable-background:new 0 0 500 500;" xml:space="preserve">
<title>arrow-right</title>
<g id="_">
	<g>
		<path d="M53.1,109.2L250,306.1l196.9-196.9c3.1-3,7.2-4.8,11.5-5c4.3,0.2,8.4,1.9,11.5,5l25.1,25.1c3.1,3.1,4.8,7.2,5,11.5
			c-0.2,4.3-1.9,8.5-5,11.5L261.5,390.8c-6,6.4-16,6.7-22.3,0.7c-0.2-0.2-0.5-0.5-0.7-0.7L5,157.3c-3.1-3.1-4.8-7.2-5-11.5
			c0.2-4.3,1.9-8.4,5-11.5l25.1-25.1c3-3.1,7.2-4.9,11.5-5C45.9,104.4,50,106.2,53.1,109.2z"/>
	</g>
</g>
</svg>
