<svg id="Layer_1" data-name="Layer 1" xmlns="http://www.w3.org/2000/svg" viewBox="0 0 291.58 500"><defs><style>.cls-1{isolation:isolate;}</style></defs><title>arrow-right</title><g id="_" data-name=" " class="cls-1"><g class="cls-1"><path d="M5,446.89,201.91,250,5,53.11A17.27,17.27,0,0,1,0,41.62,17.29,17.29,0,0,1,5,30.09L30.09,5A17.12,17.12,0,0,1,41.58,0,17.22,17.22,0,0,1,53.11,5L286.58,238.46a15.81,15.81,0,0,1,0,23.07L53.11,495a17.22,17.22,0,0,1-11.54,5,17.12,17.12,0,0,1-11.49-5L5,469.91a16.37,16.37,0,0,1-5-11.54A17.27,17.27,0,0,1,5,446.89Z"/></g></g></svg>