<?xml version="1.0" encoding="utf-8"?>
<!-- Generator: Adobe Illustrator 21.0.2, SVG Export Plug-In . SVG Version: 6.00 Build 0)  -->
<svg version="1.1" id="Ebene_1" xmlns="http://www.w3.org/2000/svg" xmlns:xlink="http://www.w3.org/1999/xlink" x="0px" y="0px"
	 viewBox="0 0 500 500" style="enable-background:new 0 0 500 500;" xml:space="preserve">
<g id="Vorteile" transform="translate(400 814)">
	<path d="M29.9-568.9c-15.3-20.3-32.8-38.9-52.1-55.5c-17.2-15.1-36.3-28-56.8-38.3c-44.4-23.6-97.6-23.6-142,0
		c-20.5,10.3-39.6,23.2-56.8,38.3c-19.3,16.6-36.8,35.2-52.1,55.5c-2,2.7-2,6.4,0,9.1c15.3,20.3,32.8,38.9,52.1,55.5
		c17.2,15.1,36.3,28,56.8,38.3c44.4,23.6,97.6,23.6,142,0c20.5-10.3,39.6-23.2,56.8-38.3c19.3-16.6,36.8-35.2,52.1-55.5
		C31.9-562.5,31.9-566.2,29.9-568.9z M-150.2-634c38.3-0.1,69.5,30.9,69.6,69.2c0.1,38.3-30.9,69.5-69.2,69.6c-0.1,0-0.1,0-0.2,0
		c-38.3,0.1-69.4-30.9-69.4-69.2C-219.5-602.7-188.5-633.8-150.2-634z"/>
	<g>
		<g id="Group_41" transform="translate(11 9)">
			<path id="Path_184" d="M-161-721.9c-6.5,0-11.8-5.3-11.8-11.8l0,0v-25c0.2-6.5,5.6-11.7,12.2-11.5c6.3,0.2,11.3,5.2,11.5,11.5v25
				C-149.2-727.2-154.5-721.9-161-721.9L-161-721.9"/>
		</g>
	</g>
	<g>
		<g id="Group_42" transform="translate(11 9)">
			<path id="Path_185" d="M-311.9-650.8c-3.1,0-6.1-1.2-8.4-3.5l-19.4-19.3c-4.7-4.5-4.8-12-0.2-16.7c4.5-4.7,12-4.8,16.7-0.2
				c0.1,0.1,0.2,0.2,0.2,0.3l19.3,19.3c4.6,4.6,4.6,12.1,0,16.7C-305.7-652.1-308.8-650.8-311.9-650.8"/>
		</g>
	</g>
	<g>
		<g id="Group_43" transform="translate(11 9)">
			<path id="Path_186" d="M-244.3-699.9c-4.5,0-8.7-2.6-10.7-6.7l-12.3-25.6c-2.7-5.9,0-13,5.9-15.6c5.8-2.6,12.6-0.2,15.4,5.4
				l12.3,25.6c2.8,5.9,0.3,12.9-5.6,15.7C-240.8-700.2-242.6-699.8-244.3-699.9"/>
		</g>
	</g>
	<g>
		<g id="Group_44" transform="translate(11 9)">
			<path id="Path_187" d="M-10.1-650.8c-6.5,0-11.8-5.3-11.8-11.8c0-3.1,1.2-6.1,3.5-8.4l19.3-19.3c4.5-4.7,12-4.8,16.7-0.3
				c4.7,4.5,4.8,12,0.3,16.7c-0.1,0.1-0.2,0.2-0.2,0.3l-19.3,19.3C-4-652.1-7-650.8-10.1-650.8"/>
		</g>
	</g>
	<g>
		<g id="Group_45" transform="translate(11 9)">
			<path id="Path_188" d="M-77.7-699.9c-6.5,0-11.8-5.3-11.8-11.8c0-1.8,0.4-3.5,1.2-5.1l12.3-25.6c2.9-5.9,10-8.3,15.8-5.4
				c5.8,2.8,8.2,9.8,5.5,15.6L-67-706.5C-68.9-702.4-73.1-699.8-77.7-699.9"/>
		</g>
	</g>
	<g>
		<g id="Group_46" transform="translate(11 9)">
			<path id="Path_189" d="M-161-375.8c-6.5,0-11.8-5.3-11.8-11.8l0,0v-25c0.2-6.5,5.6-11.7,12.2-11.5c6.3,0.2,11.3,5.2,11.5,11.5v25
				C-149.2-381-154.5-375.8-161-375.8C-161-375.8-161-375.8-161-375.8"/>
		</g>
	</g>
	<g>
		<g id="Group_47" transform="translate(11 9)">
			<path id="Path_190" d="M9.2-452.6c-3.1,0-6.1-1.2-8.4-3.5l-19.3-19.3c-4.7-4.5-4.8-12-0.2-16.7c4.5-4.7,12-4.8,16.7-0.2
				c0.1,0.1,0.2,0.2,0.2,0.3l19.3,19.3c4.6,4.6,4.6,12.1,0,16.7C15.4-453.8,12.4-452.6,9.2-452.6"/>
		</g>
	</g>
	<g>
		<g id="Group_48" transform="translate(11 9)">
			<path id="Path_191" d="M-65.3-397.2c-4.5,0-8.7-2.6-10.7-6.7l-12.3-25.6c-2.7-5.9,0-13,5.9-15.6c5.8-2.6,12.6-0.2,15.4,5.4
				l12.3,25.6c2.8,5.9,0.3,12.9-5.6,15.7C-61.8-397.6-63.6-397.2-65.3-397.2"/>
		</g>
	</g>
	<g>
		<g id="Group_49" transform="translate(11 9)">
			<path id="Path_192" d="M-331.2-452.6c-6.5,0-11.8-5.3-11.8-11.8c0-3.1,1.2-6.1,3.5-8.4l19.3-19.3c4.5-4.7,12-4.8,16.7-0.3
				c4.7,4.5,4.8,12,0.3,16.7c-0.1,0.1-0.2,0.2-0.2,0.3l-19.3,19.3C-325-453.8-328.1-452.6-331.2-452.6"/>
		</g>
	</g>
	<g>
		<g id="Group_50" transform="translate(11 9)">
			<path id="Path_193" d="M-256.7-397.2c-6.5,0-11.8-5.3-11.8-11.8c0-1.8,0.4-3.5,1.2-5.1l12.3-25.6c2.9-5.8,10.1-8.2,15.9-5.2
				c5.6,2.9,8,9.6,5.4,15.4l-12.3,25.6C-248-399.8-252.1-397.2-256.7-397.2"/>
		</g>
	</g>
	<path d="M-120.7-550.6c0.2-0.4,0.5-0.7,0.6-1.2c0.7-1.6,1.1-3.3,1.6-5c0.1-0.4,0.3-0.7,0.3-1.1c0.3-1.4,0.4-3,0.5-4.5
		c0-0.7,0.2-1.4,0.2-2.1c0,0,0,0,0,0s0,0,0,0c0-0.7-0.2-1.4-0.2-2.1c-0.1-1.5-0.2-3-0.5-4.5c-0.1-0.4-0.2-0.7-0.3-1.1
		c-0.4-1.7-0.9-3.4-1.6-5c-0.2-0.4-0.4-0.8-0.6-1.2c-0.7-1.5-1.4-3-2.4-4.3c-0.5-0.8-1.2-1.4-1.7-2.1c-0.7-0.9-1.4-1.8-2.2-2.6
		c-1.2-1.2-2.5-2.2-3.9-3.2c-0.3-0.2-0.5-0.5-0.8-0.7c-5.2-3.5-11.5-5.6-18.2-5.6c-15.4,0-28.2,10.9-31.4,25.3
		c0,0.2-0.1,0.3-0.1,0.5c-0.3,1.4-0.3,2.8-0.4,4.2c-0.1,0.8-0.2,1.5-0.2,2.3c0,0,0,0,0,0.1s0,0,0,0.1c0,0.8,0.2,1.5,0.2,2.3
		c0.1,1.4,0.2,2.9,0.4,4.2c0,0.2,0.1,0.3,0.1,0.4c3.2,14.5,16,25.3,31.4,25.4c6.8,0,13-2.1,18.2-5.6c0.3-0.2,0.5-0.4,0.7-0.6
		c1.4-1,2.8-2.1,4-3.3c0.8-0.8,1.5-1.7,2.2-2.6c0.6-0.7,1.2-1.4,1.8-2.1C-122.2-547.6-121.5-549.1-120.7-550.6z"/>
</g>
</svg>
