<?xml version="1.0" encoding="utf-8"?>
<!-- Generator: Adobe Illustrator 21.0.2, SVG Export Plug-In . SVG Version: 6.00 Build 0)  -->
<svg version="1.1" id="Ebene_1" xmlns="http://www.w3.org/2000/svg" xmlns:xlink="http://www.w3.org/1999/xlink" x="0px" y="0px"
	 viewBox="0 0 500 500" style="enable-background:new 0 0 500 500;" xml:space="preserve">
<g id="Service" transform="translate(1563 814)">
	<g>
		<g id="Group_30" transform="translate(11 9)">
			<path id="Path_174" d="M-1171.5-615.9l-10-29.9c-3.4-12.8-16.6-20.5-29.4-17.2c-12.3,5.2-18.1,19.3-13.2,31.7l9.1,27.5
				c1.8,6,2.6,12.2,2.5,18.4c-4.1-3.7-8.4-7.1-12.9-10.2l-87.5-118.7c-6.1-11-19.9-15-30.9-9c-11,6.1-15,19.9-9,30.9
				c1,1.8,2.2,3.4,3.5,4.8l52.1,70.7c-4.7-0.1-9.5,0.4-14.2,1.3l-59.2-80.3c-6.1-11-19.9-15-30.9-8.9c-11,6.1-15,19.9-8.9,30.9
				c1,1.7,2.1,3.3,3.5,4.8l53,72c-3.5,2.6-6.8,5.4-10,8.4l-47.8-64.9c-6.1-11-19.9-15-30.9-8.9c-11,6.1-15,19.9-8.9,30.9
				c1,1.7,2.1,3.3,3.5,4.8l57.8,78.5c-1.7,5-3.2,10.3-4.5,15.8l-50.4-68.4c-6-11.1-19.8-15.2-30.8-9.2c-11.1,6-15.2,19.8-9.2,30.8
				c1,1.9,2.3,3.6,3.8,5.1l68.7,93.3c0.4,0.6,0.9,1,1.4,1.6c0.8,1.2,1.7,2.4,2.6,3.6c45,61.1,131,74.1,192.1,29.1
				c49.4-36.4,68.7-101.2,47.2-158.7C-1169.6-609-1170.4-612.5-1171.5-615.9"/>
		</g>
	</g>
</g>
</svg>
