<?xml version="1.0" encoding="utf-8"?>
<!-- Generator: Adobe Illustrator 21.0.2, SVG Export Plug-In . SVG Version: 6.00 Build 0)  -->
<svg version="1.1" id="Ebene_1" xmlns="http://www.w3.org/2000/svg" xmlns:xlink="http://www.w3.org/1999/xlink" x="0px" y="0px"
	 viewBox="0 0 500 500" style="enable-background:new 0 0 500 500;" xml:space="preserve">
<path d="M437.4,145.7H205.3c1.6-3.9,4.2-7.3,7.8-9.7c8-5.2,17.5-7.8,27-7.2l-0.8-92.1l0,0c-34.8-1.4-68.9,10.8-94.9,34
	c-23.8,20.7-37.3,50.7-37.2,82.2c0.1,49.8,32.9,91.3,98.5,124.3l34.4,17.1c20.4,10.3,33.6,20.8,39.9,31.4H62.6v27.8h217.9
	c-2.1,3.5-4.9,6.7-8.4,9c-9.4,6.9-20.8,10.3-32.4,9.7l-5.8,91.1c44.6,0,80.1-12.2,106.6-36.2c45.3-41.8,52.9-110.6,17.8-161.2
	c-14.6-20.2-41.6-40-80.9-59.4L240,188.1c-8.8-3.8-17.1-8.7-24.8-14.5h222.2V145.7z"/>
</svg>
