<?xml version="1.0" encoding="utf-8"?>
<!-- Generator: Adobe Illustrator 21.0.2, SVG Export Plug-In . SVG Version: 6.00 Build 0)  -->
<svg version="1.1" id="Ebene_1" xmlns="http://www.w3.org/2000/svg" xmlns:xlink="http://www.w3.org/1999/xlink" x="0px" y="0px"
	 viewBox="0 0 500 500" style="enable-background:new 0 0 500 500;" xml:space="preserve">
<g id="Entwicklung" transform="translate(970.458 2122)">
	<g id="Group_21" transform="translate(0 0)">
		<g>
			<g id="Group_12" transform="translate(0 0)">
				<path id="Path_163" d="M-578.3-1834.5c6.2,0,11.2-5,11.2-11.2c0-4.6-2.9-8.8-7.2-10.5l-20.7-8c-5.8-2.2-12.3,0.6-14.5,6.4
					c-2.2,5.8,0.6,12.3,6.4,14.5l0,0l20.7,8C-581-1834.8-579.7-1834.5-578.3-1834.5"/>
			</g>
		</g>
		<g>
			<g id="Group_13" transform="translate(0 0)">
				<path id="Path_164" d="M-593.7-1926.9c0.8,0,1.6-0.1,2.4-0.3l21.5-4.7c6.1-1.3,9.9-7.3,8.6-13.4c-1.3-6.1-7.3-9.9-13.4-8.6l0,0
					l-21.5,4.7c-6.1,1.3-9.9,7.3-8.6,13.4C-603.5-1930.6-599-1926.9-593.7-1926.9"/>
			</g>
		</g>
		<g>
			<g id="Group_14" transform="translate(0 0)">
				<path id="Path_165" d="M-635.8-1994.5c3,0,5.8-1.2,7.9-3.2l15.1-14.9c4.4-4.4,4.5-11.5,0.1-15.9c-4.4-4.4-11.5-4.5-15.9-0.1l0,0
					l-15.1,14.9c-4.4,4.4-4.5,11.5-0.1,15.9C-641.7-1995.7-638.8-1994.5-635.8-1994.5"/>
			</g>
		</g>
		<g>
			<g id="Group_15" transform="translate(0 0)">
				<path id="Path_166" d="M-720.4-2025.6c6.2,0,11.2-5,11.2-11.2v-21.7c0-6.2-5-11.2-11.2-11.2c-6.2,0-11.2,5-11.2,11.2v21.7
					C-731.6-2030.6-726.6-2025.5-720.4-2025.6"/>
			</g>
		</g>
		<g>
			<g id="Group_16" transform="translate(0 0)">
				<path id="Path_167" d="M-861.8-1834.5c1.4,0,2.8-0.3,4-0.8l20.7-8c5.8-2.2,8.7-8.7,6.4-14.5c-2.2-5.8-8.7-8.7-14.5-6.4l-20.7,8
					c-5.8,2.2-8.7,8.7-6.4,14.5C-870.6-1837.4-866.4-1834.5-861.8-1834.5"/>
			</g>
		</g>
		<g>
			<g id="Group_17" transform="translate(0 0)">
				<path id="Path_168" d="M-847.1-1926.9c6.2,0,11.2-5,11.2-11.2c0-5.3-3.7-9.9-8.9-11l-21.5-4.7c-6.1-1.3-12,2.5-13.4,8.6
					c-1.3,6.1,2.5,12,8.6,13.4l21.5,4.7C-848.7-1927-847.9-1926.9-847.1-1926.9"/>
			</g>
		</g>
		<g>
			<g id="Group_18" transform="translate(0 0)">
				<path id="Path_169" d="M-805-1994.5c6.2,0,11.2-5,11.2-11.2c0-3-1.2-5.9-3.3-8l-15.1-14.9c-4.4-4.4-11.5-4.3-15.9,0.1
					c-4.4,4.4-4.3,11.5,0.1,15.9l15.1,14.9C-810.8-1995.6-808-1994.5-805-1994.5"/>
			</g>
		</g>
	</g>
	<g>
		<path d="M-644.8-1977.6c-41.4-40.9-108.1-40.5-149,0.9v0c-35.5,35.9-40.5,92-12,133.6c18.1,26.3,29.2,48.7,29.2,79.1
			c0,0.4,0,0.9,0.1,1.3v13h15v0h85.2v0h15v-12.9c0,0,0,0,0,0c0.1-0.4,0.1-0.9,0.1-1.3c0-30.1,11.3-52.7,29.4-79.4
			C-603.1-1885.3-608.6-1941.8-644.8-1977.6z M-763.7-1874.4c1.5-8.5,9.7-14.2,18.2-12.6c4.8,1.1,9.3,3.2,13.2,6.1
			c8.7,5.8,19.9,5.8,28.6,0c3.9-2.9,8.4-5,13.2-6.1c3.2-0.6,6.4-0.2,9.4,1.2c7.9,3.6,11.3,12.9,7.7,20.8
			c-13.6,29.5-21.6,61.2-23.5,93.6h-15h0c2-34.6,10.4-68.4,24.9-99.9c0.1-0.2,0.1-0.5-0.1-0.7c-0.2-0.2-0.4-0.3-0.7-0.3
			c-2.7,0.8-5.3,2.1-7.6,3.8c-13.7,9.1-31.5,9.1-45.2,0c-2.3-1.7-4.9-3-7.6-3.8c-0.3-0.1-0.6,0-0.7,0.3c-0.2,0.2-0.2,0.5-0.1,0.7
			c14.5,31.4,23,65.3,24.9,99.9h-15c-1.9-32.4-9.9-64.1-23.5-93.6C-763.9-1868-764.3-1871.2-763.7-1874.4z"/>
		<g>
			<path d="M-676.3-1734.8L-676.3-1734.8l-85.2,0v0h-15v15.2c0,1.2,0.1,2.3,0.3,3.5h7.8c0,0,0,0,0,0h99c0,0,0,0,0,0h7.7
				c0.2-1.2,0.3-2.3,0.3-3.5v-15.2H-676.3z"/>
			<path d="M-696.5-1701.1h-44.8c0,0,0,0,0,0h-16.8c4.3,11,13,19.8,24,24c21.6,8.4,46-2.4,54.3-24L-696.5-1701.1
				C-696.5-1701.1-696.5-1701.1-696.5-1701.1z"/>
		</g>
	</g>
</g>
</svg>
