<svg id="Layer_1" data-name="Layer 1" xmlns="http://www.w3.org/2000/svg" viewBox="0 0 500 500"><defs><style>.cls-1{isolation:isolate;}</style></defs><title>facebook</title><g id="_" data-name=" " class="cls-1"><g class="cls-1"><path d="M500,93.76V406.24A93.78,93.78,0,0,1,406.24,500H345V306.32h64.78l9.78-75.52H345V182.63c0-21.83,5.87-36.48,37.42-36.48l39.73-.31V78.46c-6.84-1-30.61-2.94-57.94-2.94-57.6,0-97.33,35.14-97.33,99.61v55.66H201.84v75.52h65.09V500H93.76A93.78,93.78,0,0,1,0,406.24V93.76A93.78,93.78,0,0,1,93.76,0H406.24A93.78,93.78,0,0,1,500,93.76Z"/></g></g></svg>