<?xml version="1.0" encoding="utf-8"?>
<!-- Generator: Adobe Illustrator 21.1.0, SVG Export Plug-In . SVG Version: 6.00 Build 0)  -->
<svg version="1.1" id="Ebene_1" xmlns="http://www.w3.org/2000/svg" xmlns:xlink="http://www.w3.org/1999/xlink" x="0px" y="0px"
	 viewBox="0 0 500 500" style="enable-background:new 0 0 500 500;" xml:space="preserve">
<path id="Path_64" d="M50.3,99.7c58.6,33.4,124.9,51.2,192.3,51.7v97.5H0.1v-11.6C2.6,187.5,19.9,139.6,50,99.8 M242.3,0.1
	C172,2.1,105.8,33.8,60.1,87.2c55.7,31,118.4,47.5,182.2,48V0.1z M499.6,262.9c-2.4,49.7-19.7,97.6-49.6,137.4
	c-58.6-33.4-124.9-51.2-192.3-51.7v-85.7L499.6,262.9z M449.7,99.7c-58.6,33.4-124.9,51.2-192.3,51.7v97.4h242.5v-11.6
	c-2.5-49.8-19.9-97.7-49.9-137.5 M257.7,0.1c8.2,0.2,16.3,0.9,24.3,1.9C343,11.3,398.8,41.4,440,87.2c-55.8,31-118.4,47.5-182.2,48
	L257.7,0.1L257.7,0.1z M257.7,500c70.3-2.1,136.5-33.7,182.2-87.1c-55.7-31-118.4-47.5-182.2-48V500z M242.6,500
	c-70.3-2.1-136.5-33.7-182.2-87.1c55.7-31,118.4-47.5,182.2-48V500z M0.4,262.9c2.5,49.7,19.9,97.6,49.9,137.4
	c58.6-33.4,124.9-51.2,192.3-51.7v-85.7L0.4,262.9z"/>
</svg>
