<svg id="Layer_1" data-name="Layer 1" xmlns="http://www.w3.org/2000/svg" viewBox="0 0 500 500"><defs><style>.cls-1{isolation:isolate;}</style></defs><title>linkedin</title><g id="_" data-name=" " class="cls-1"><g class="cls-1"><path d="M500,406.24A93.78,93.78,0,0,1,406.24,500H93.76A93.78,93.78,0,0,1,0,406.24V93.76A93.78,93.78,0,0,1,93.76,0H406.24A93.78,93.78,0,0,1,500,93.76ZM115.25,84c-25.74,0-42.66,16.93-42.66,39,0,21.49,16.27,39.07,41.67,39.07h.31c26.39,0,42.66-17.58,42.66-39.07C156.92,100.92,141,84,115.25,84Zm37.11,334.64V192.72H77.15V418.63Zm270.49,0V289.07c0-69.34-37.11-101.57-86.58-101.57-40.38,0-58.28,22.46-68,38.08h.63V192.72H193.68s1,21.15,0,225.92h75.18V292.32c0-6.53.34-13.34,2.28-18.24,5.53-13.34,17.9-27.33,38.76-27.33,27,0,37.73,20.49,37.73,51.1V418.63Z"/></g></g></svg>