<svg xmlns="http://www.w3.org/2000/svg" xmlns:xlink="http://www.w3.org/1999/xlink" viewBox="1574 823 50 50">
  <defs>
    <style>
      .cls-1 {
        clip-path: url(#clip-path);
      }

      .cls-2 {
        fill: #f9ba00;
      }

      .cls-3 {
        fill: #fff;
      }
    </style>
    <clipPath id="clip-path">
      <rect id="Rectangle_38" data-name="Rectangle 38" width="50" height="50" transform="translate(0 0)"/>
    </clipPath>
  </defs>
  <g id="Service" transform="translate(1563 814)">
    <g id="Group_29" data-name="Group 29" class="cls-1" transform="translate(11 9)">
      <path id="Path_173" data-name="Path 173" class="cls-2" d="M17.25,9S11,9,11,15.25v37.5S11,59,17.25,59h37.5S61,59,61,52.75V15.25S61,9,54.75,9Z" transform="translate(-11 -9)"/>
    </g>
    <g id="Group_30" data-name="Group 30" class="cls-1" transform="translate(11 9)">
      <path id="Path_174" data-name="Path 174" class="cls-3" d="M125.966,113.575l-1-2.992a2.414,2.414,0,0,0-2.944-1.715,2.46,2.46,0,0,0-1.319,3.17l.913,2.748a6.243,6.243,0,0,1,.254,1.843,12.154,12.154,0,0,0-1.293-1.021l-8.745-11.869a2.275,2.275,0,1,0-3.631,2.676l5.209,7.07a7.023,7.023,0,0,0-1.415.126l-5.916-8.03a2.275,2.275,0,1,0-3.632,2.676l5.3,7.2a10.679,10.679,0,0,0-1,.836l-4.779-6.486a2.275,2.275,0,1,0-3.632,2.676l5.782,7.847c-.17.5-.32,1.029-.45,1.582l-5.043-6.844A2.275,2.275,0,1,0,95,117.743l6.87,9.325c.042.056.092.1.137.157.084.123.174.243.264.363a13.736,13.736,0,0,0,23.924-12.959,5.647,5.647,0,0,0-.229-1.054" transform="translate(-85.755 -92.862)"/>
    </g>
  </g>
</svg>
