<svg xmlns="http://www.w3.org/2000/svg" xmlns:xlink="http://www.w3.org/1999/xlink" viewBox="997 823 50 50">
  <defs>
    <style>
      .cls-1 {
        clip-path: url(#clip-path);
      }

      .cls-2 {
        fill: #f9ba00;
      }

      .cls-3 {
        clip-path: url(#clip-path-2);
      }

      .cls-4, .cls-5 {
        fill: #fff;
      }

      .cls-5 {
        fill-rule: evenodd;
      }
    </style>
    <clipPath id="clip-path">
      <rect id="Rectangle_40" data-name="Rectangle 40" width="50" height="50"/>
    </clipPath>
    <clipPath id="clip-path-2">
      <path id="Path_176" data-name="Path 176" d="M17.188,9S11,9,11,15.188V52.812S11,59,17.188,59H54.812S61,59,61,52.812V15.188S61,9,54.812,9Z" transform="translate(-11 -9)"/>
    </clipPath>
  </defs>
  <g id="Siconnex" transform="translate(986 814)">
    <g id="Group_32" data-name="Group 32" transform="translate(11 9)">
      <g id="Group_31" data-name="Group 31" class="cls-1" transform="translate(0)">
        <path id="Path_175" data-name="Path 175" class="cls-2" d="M17.188,9S11,9,11,15.188V52.812S11,59,17.188,59H54.812S61,59,61,52.812V15.188S61,9,54.812,9Z" transform="translate(-11 -9)"/>
      </g>
    </g>
    <g id="Group_36" data-name="Group 36" transform="translate(11 9)">
      <g id="Group_33" data-name="Group 33" class="cls-3" transform="translate(0)">
        <rect id="Rectangle_41" data-name="Rectangle 41" class="cls-4" width="23.981" height="2.78" transform="translate(6.258 32.574)"/>
      </g>
      <g id="Group_34" data-name="Group 34" class="cls-3" transform="translate(0)">
        <rect id="Rectangle_42" data-name="Rectangle 42" class="cls-4" width="23.981" height="2.796" transform="translate(19.761 14.564)"/>
      </g>
      <g id="Group_35" data-name="Group 35" class="cls-3" transform="translate(0)">
        <path id="Path_178" data-name="Path 178" class="cls-5" d="M127.073,44.131l.082,9.21a4.5,4.5,0,0,0-2.7.724,2.213,2.213,0,0,0-.969,1.809,2.244,2.244,0,0,0,.625,1.513,11.842,11.842,0,0,0,3.042,1.892l3.734,1.858q5.9,2.91,8.092,5.937A12.344,12.344,0,0,1,137.2,83.194c-2.647,2.4-6.2,3.618-10.657,3.618l.575-9.112a5.04,5.04,0,0,0,3.241-.97,2.788,2.788,0,0,0,1.234-2.237q0-2.344-4.441-4.589l-3.437-1.711q-9.845-4.96-9.853-12.434a10.823,10.823,0,0,1,3.717-8.224,13.487,13.487,0,0,1,9.491-3.4" transform="translate(-103.15 -40.472)"/>
      </g>
    </g>
  </g>
</svg>
