<svg id="Layer_1" data-name="Layer 1" xmlns="http://www.w3.org/2000/svg" viewBox="0 0 500 500"><defs><style>.cls-1{isolation:isolate;}</style></defs><title>xing</title><g id="_" data-name=" " class="cls-1"><g class="cls-1"><path d="M500,406.24A93.76,93.76,0,0,1,406.26,500H93.76A93.78,93.78,0,0,1,0,406.24V93.76A93.78,93.78,0,0,1,93.76,0h312.5A93.76,93.76,0,0,1,500,93.76ZM182,135.09c-3.28-5.22-7.84-11.06-16.93-11.06H105.16c-3.93,0-6.84,1.28-8.46,3.56-1.62,2.62-1.31,6.18.31,9.46l40.7,70.31v.31L73.93,320.31a8.27,8.27,0,0,0,0,9.12,8.72,8.72,0,0,0,7.81,4.22h60.19c8.81,0,13.34-6.18,16.3-11.71C220.7,211.58,223,207.36,223,207.36S223,207,182,135.09ZM418.32,41.67H357.44c-8.78,0-12.71,5.53-16,11.4C211.92,282.89,207.71,290.36,207.71,290.36s0,.34,85.27,156.58c2.94,5.22,7.5,11.4,16.93,11.4h59.91c3.59,0,6.5-1.31,8.15-3.9s1.6-5.87-.34-9.12L293,290.36V290L426.13,54.69c1.62-3.25,1.62-6.53,0-9.12S421.91,41.67,418.32,41.67Z"/></g></g></svg>