<svg xmlns="http://www.w3.org/2000/svg" viewBox="835 4425 41 41">
  <defs>
    <style>
      .cls-1 {
        fill: #f9ba00;
      }

      .cls-2 {
        fill: #fff;
      }
    </style>
  </defs>
  <g id="pin" transform="translate(835.001 4425.001)">
    <path id="Path_200" data-name="Path 200" class="cls-1" d="M3.227,0A3.159,3.159,0,0,0,0,3.227V37.783A3.159,3.159,0,0,0,3.227,41H37.783A3.159,3.159,0,0,0,41,37.783V3.227A3.159,3.159,0,0,0,37.783,0Z" transform="translate(0 0)"/>
    <path id="Path_201" data-name="Path 201" class="cls-2" d="M31.657,19.694A11.92,11.92,0,1,1,19.692,7.8a11.92,11.92,0,0,1,11.965,11.9m-26.067,0A14.147,14.147,0,1,0,19.692,5.57,14.147,14.147,0,0,0,5.59,19.694m3.8,0A10.352,10.352,0,1,0,19.692,9.365,10.352,10.352,0,0,0,9.385,19.694" transform="translate(0.762 0.759)"/>
  </g>
</svg>
