<svg xmlns="http://www.w3.org/2000/svg" viewBox="121 17 213.8 61.8">
  <defs>
    <style>
      .cls-1 {
        fill: #a9afb3;
      }

      .cls-2 {
        fill: #fabb00;
      }
    </style>
  </defs>
  <g id="siconnex-logo-quer" transform="translate(121 17)">
    <g id="Group_57" data-name="Group 57">
      <rect id="Rectangle_64" data-name="Rectangle 64" class="cls-1" width="34.7" height="4" transform="translate(0 41.8)"/>
      <rect id="Rectangle_65" data-name="Rectangle 65" class="cls-1" width="34.7" height="4" transform="translate(19.5 15.8)"/>
      <path id="Path_210" data-name="Path 210" class="cls-2" d="M25.6,0V13.3a6.132,6.132,0,0,0-3.8,1.1,3.125,3.125,0,0,0-.5,4.8,15.38,15.38,0,0,0,4.4,2.7l5.4,2.7c5.7,2.8,9.6,5.7,11.7,8.6A17.053,17.053,0,0,1,46,43.5a16.879,16.879,0,0,1-5.8,13.1c-3.8,3.5-8.8,5.2-15.3,5.2V48.7a10.07,10.07,0,0,0,5.4-1.4,3.975,3.975,0,0,0,1.8-3.2c0-2.3-2.1-4.5-6.4-6.6l-5-2.5C11.2,30,6.5,24,6.5,16.8A15.63,15.63,0,0,1,11.9,4.9C15.4,1.6,20,0,25.6,0"/>
    </g>
    <g id="Group_58" data-name="Group 58">
      <path id="Path_211" data-name="Path 211" class="cls-2" d="M82.8,20.9l-2.7,2.8a4.674,4.674,0,0,0-3-1.7,2.133,2.133,0,0,0-1.2.3.909.909,0,0,0-.4.8,1.08,1.08,0,0,0,.3.7,4.185,4.185,0,0,0,1.3.8l1.6.8A8.578,8.578,0,0,1,82.2,28a5.455,5.455,0,0,1,1,3.1A5.066,5.066,0,0,1,81.5,35a6.936,6.936,0,0,1-4.6,1.6,7.492,7.492,0,0,1-6.2-3l2.7-3a6.549,6.549,0,0,0,1.8,1.5,3.809,3.809,0,0,0,1.9.6,1.955,1.955,0,0,0,1.4-.4,1.389,1.389,0,0,0,.5-1c0-.7-.6-1.3-1.9-2l-1.5-.7c-2.9-1.4-4.3-3.2-4.3-5.4a4.649,4.649,0,0,1,1.6-3.6A5.755,5.755,0,0,1,77,18.1a7.216,7.216,0,0,1,3.2.8,4.53,4.53,0,0,1,2.6,2"/>
      <path id="Path_212" data-name="Path 212" class="cls-2" d="M88.4,11a2.973,2.973,0,0,1,2,.8,2.568,2.568,0,0,1,.8,2,2.792,2.792,0,0,1-.8,2,2.438,2.438,0,0,1-2,.8,2.665,2.665,0,0,1-2-.9,2.067,2.067,0,0,1-.8-1.8,2.973,2.973,0,0,1,.8-2,3.081,3.081,0,0,1,2-.9m-2.3,7.4h4.5V36.1H86.2l-.1-17.7Z"/>
      <path id="Path_213" data-name="Path 213" class="cls-1" d="M112,21.9l-3.7,2a6.851,6.851,0,0,0-2.1-1.5,6.051,6.051,0,0,0-2.4-.4,5.354,5.354,0,0,0-4,1.5,5.2,5.2,0,0,0-1.5,3.8A4.975,4.975,0,0,0,99.8,31a5.21,5.21,0,0,0,3.9,1.4,6.039,6.039,0,0,0,4.7-2l3.5,2.4a9.536,9.536,0,0,1-8.1,3.7c-3.1,0-5.6-.9-7.3-2.8a8.821,8.821,0,0,1-2.6-6.5,8.544,8.544,0,0,1,1.3-4.7,9.8,9.8,0,0,1,3.6-3.4,11.073,11.073,0,0,1,5.2-1.2,10.152,10.152,0,0,1,4.7,1,10.379,10.379,0,0,1,3.3,3"/>
      <path id="Path_214" data-name="Path 214" class="cls-1" d="M123.2,17.9a8.781,8.781,0,0,1,4.7,1.3,8.555,8.555,0,0,1,3.4,3.4,9.291,9.291,0,0,1,1.2,4.6,9.666,9.666,0,0,1-1.2,4.7,8.555,8.555,0,0,1-3.4,3.4,9.392,9.392,0,0,1-4.7,1.2,9.219,9.219,0,0,1-9.2-9.3,8.869,8.869,0,0,1,3-6.9,9.624,9.624,0,0,1,6.2-2.4m.1,4.1a5,5,0,0,0-3.5,1.4,5.308,5.308,0,0,0-1.4,3.7,5.137,5.137,0,0,0,1.4,3.7,4.459,4.459,0,0,0,3.5,1.4,4.826,4.826,0,0,0,3.5-1.4,5.308,5.308,0,0,0,1.4-3.7,5.137,5.137,0,0,0-1.4-3.7,5,5,0,0,0-3.5-1.4"/>
      <path id="Path_215" data-name="Path 215" class="cls-1" d="M136.2,18.4h4.4v1.8a15.734,15.734,0,0,1,2.7-1.8,7.418,7.418,0,0,1,2.5-.5,6.105,6.105,0,0,1,4.5,1.8,6.369,6.369,0,0,1,1.5,4.6V36h-4.4V28.2a18.617,18.617,0,0,0-.3-4.2,2.944,2.944,0,0,0-1-1.6,2.618,2.618,0,0,0-1.7-.5,3.168,3.168,0,0,0-2.3.9,4.609,4.609,0,0,0-1.3,2.5,16.863,16.863,0,0,0-.2,3.7v7h-4.4Z"/>
      <path id="Path_216" data-name="Path 216" class="cls-1" d="M156.1,18.4h4.5v1.8a15.734,15.734,0,0,1,2.7-1.8,7.418,7.418,0,0,1,2.5-.5,6.105,6.105,0,0,1,4.5,1.8,6.369,6.369,0,0,1,1.5,4.6V36h-4.4V28.2a18.617,18.617,0,0,0-.3-4.2,2.944,2.944,0,0,0-1-1.6,2.618,2.618,0,0,0-1.7-.5,3.168,3.168,0,0,0-2.3.9,4.609,4.609,0,0,0-1.3,2.5,16.863,16.863,0,0,0-.2,3.7v7h-4.4l-.1-17.6Z"/>
      <path id="Path_217" data-name="Path 217" class="cls-1" d="M193.8,28.4H179.6a4.886,4.886,0,0,0,1.6,3,5.331,5.331,0,0,0,3.4,1.1,6.131,6.131,0,0,0,4.3-1.7l3.7,1.8a8.287,8.287,0,0,1-3.3,2.9,10.762,10.762,0,0,1-4.6,1,9.438,9.438,0,0,1-6.8-2.6,8.967,8.967,0,0,1-2.6-6.6,9.365,9.365,0,0,1,2.6-6.7,8.668,8.668,0,0,1,6.6-2.7,8.962,8.962,0,0,1,6.8,2.7,9.757,9.757,0,0,1,2.6,7ZM189.4,25a4.63,4.63,0,0,0-1.7-2.4,5.291,5.291,0,0,0-3-.9,5.581,5.581,0,0,0-3.3,1,5.42,5.42,0,0,0-1.6,2.3Z"/>
      <path id="Path_218" data-name="Path 218" class="cls-1" d="M195.9,18.4H201l3.5,4.7,3.5-4.7h5.1l-6,8.4,6.7,9.2h-5.1l-4.2-5.7L200.3,36h-5.1l6.7-9.2Z"/>
      <path id="Path_219" data-name="Path 219" class="cls-1" d="M78.6,44.4l-1.6.9a5.5,5.5,0,0,0-.9-.7,2.959,2.959,0,0,0-1-.2,2.228,2.228,0,0,0-2.4,2.2,2.111,2.111,0,0,0,.6,1.6,2.352,2.352,0,0,0,1.7.6,2.384,2.384,0,0,0,2-.9l1.5,1A4.061,4.061,0,0,1,75,50.5a3.994,3.994,0,0,1-3.1-1.2,3.691,3.691,0,0,1-1.1-2.8,3.606,3.606,0,0,1,.6-2A5.356,5.356,0,0,1,72.9,43a4.651,4.651,0,0,1,4.2,0,5.018,5.018,0,0,1,1.5,1.4"/>
      <path id="Path_220" data-name="Path 220" class="cls-1" d="M80.3,42.8h1.9v3.7a5.758,5.758,0,0,0,.1,1.5,1.024,1.024,0,0,0,.5.6,1.077,1.077,0,0,0,.8.2,1.884,1.884,0,0,0,.8-.2,1.794,1.794,0,0,0,.5-.7,4.545,4.545,0,0,0,.1-1.4V42.8h1.9V46a8.236,8.236,0,0,1-.3,2.7,3.142,3.142,0,0,1-1.1,1.4,3.557,3.557,0,0,1-1.9.5,3.173,3.173,0,0,1-2-.6,3.088,3.088,0,0,1-1.1-1.6,12.941,12.941,0,0,1-.2-2.5S80.3,42.8,80.3,42.8Z"/>
      <path id="Path_221" data-name="Path 221" class="cls-1" d="M93.6,43.9l-1.2,1.2a1.877,1.877,0,0,0-1.3-.7.749.749,0,0,0-.5.1c-.1.1-.2.2-.2.3a.367.367,0,0,0,.1.3,5.923,5.923,0,0,0,.6.4l.7.3a4.839,4.839,0,0,1,1.5,1.1,2.01,2.01,0,0,1,.4,1.3,2.193,2.193,0,0,1-.7,1.7,2.724,2.724,0,0,1-2,.7,3.225,3.225,0,0,1-2.7-1.3L89.5,48a1.555,1.555,0,0,0,.8.6,1.345,1.345,0,0,0,.8.2.845.845,0,0,0,.6-.2.4.4,0,0,0,.2-.4c0-.3-.3-.6-.8-.9l-.6-.3c-1.2-.6-1.9-1.4-1.9-2.3a1.8,1.8,0,0,1,.7-1.5,2.792,2.792,0,0,1,1.8-.6,3.194,3.194,0,0,1,1.4.3,10.948,10.948,0,0,1,1.1,1"/>
      <path id="Path_222" data-name="Path 222" class="cls-1" d="M95.5,40h1.9v2.8h1.2v1.7H97.4v6H95.5v-6h-1V42.8h1Z"/>
      <path id="Path_223" data-name="Path 223" class="cls-1" d="M103.2,42.6a4.552,4.552,0,0,1,2,.5,4.306,4.306,0,0,1,1.5,1.5,3.513,3.513,0,0,1,.5,2,4.552,4.552,0,0,1-.5,2,4.306,4.306,0,0,1-1.5,1.5,3.513,3.513,0,0,1-2,.5,4.034,4.034,0,0,1-2.7-7,4.49,4.49,0,0,1,2.7-1m0,1.8a2.035,2.035,0,0,0-1.5.6,2.433,2.433,0,0,0,0,3.2,2.175,2.175,0,0,0,3,0,2.271,2.271,0,0,0,.6-1.6,2.111,2.111,0,0,0-.6-1.6,2.035,2.035,0,0,0-1.5-.6"/>
      <path id="Path_224" data-name="Path 224" class="cls-1" d="M108.8,42.8h1.9v.9a2.836,2.836,0,0,1,1.1-.8,2.768,2.768,0,0,1,1.3-.3,2.01,2.01,0,0,1,1.3.4,2.189,2.189,0,0,1,.9,1,2.591,2.591,0,0,1,1.1-1,3.313,3.313,0,0,1,1.5-.4,2.3,2.3,0,0,1,1.4.4,2.836,2.836,0,0,1,.9,1,4.918,4.918,0,0,1,.3,2v4.5h-1.9V46.6a3.615,3.615,0,0,0-.3-1.8,1.1,1.1,0,0,0-1-.5,1.613,1.613,0,0,0-.9.3,1.242,1.242,0,0,0-.6.8,5.666,5.666,0,0,0-.2,1.6v3.4h-1.9V46.7a4.872,4.872,0,0,0-.2-1.5,1.794,1.794,0,0,0-.5-.7,5.639,5.639,0,0,0-.7-.1,1.613,1.613,0,0,0-.9.3,1.555,1.555,0,0,0-.6.8,5.666,5.666,0,0,0-.2,1.6v3.4h-1.9V42.8Z"/>
      <path id="Path_225" data-name="Path 225" class="cls-1" d="M123.1,39.8a1.222,1.222,0,0,1,.9.4,1.268,1.268,0,0,1,.4.9,1.222,1.222,0,0,1-.4.9,1.234,1.234,0,0,1-.8.4,1.222,1.222,0,0,1-.9-.4,1.268,1.268,0,0,1-.4-.9,1.222,1.222,0,0,1,.4-.9c.2-.4.4-.4.8-.4m-1,3H124v7.6h-1.9Z"/>
      <path id="Path_226" data-name="Path 226" class="cls-1" d="M125.4,42.8h5.9l-3.4,6h3.2v1.7h-6.2l3.4-6h-2.9Z"/>
      <path id="Path_227" data-name="Path 227" class="cls-1" d="M140,47.3h-6.1a1.858,1.858,0,0,0,.7,1.3,2.456,2.456,0,0,0,1.5.5,2.5,2.5,0,0,0,1.8-.8l1.6.8a4.269,4.269,0,0,1-1.4,1.3,4.211,4.211,0,0,1-2,.4,4,4,0,0,1-2.9-1.1,3.691,3.691,0,0,1-1.1-2.8,4.172,4.172,0,0,1,1.1-2.9,3.784,3.784,0,0,1,2.8-1.2,3.7,3.7,0,0,1,2.9,1.2,3.994,3.994,0,0,1,1.1,3v.3Zm-1.9-1.5a1.834,1.834,0,0,0-.7-1,2.01,2.01,0,0,0-1.3-.4,2.3,2.3,0,0,0-1.4.4,1.978,1.978,0,0,0-.7,1Z"/>
      <path id="Path_228" data-name="Path 228" class="cls-1" d="M147.2,39.9h1.9V50.5h-1.9v-.8a5.939,5.939,0,0,1-1.1.8,2.537,2.537,0,0,1-1.2.2,3.81,3.81,0,0,1-2.6-1.1,4.173,4.173,0,0,1-1.1-2.9,4.1,4.1,0,0,1,1-2.9,3.074,3.074,0,0,1,2.5-1.1,2.768,2.768,0,0,1,1.3.3,2.836,2.836,0,0,1,1.1.8l.1-3.9Zm-2,4.5a2.035,2.035,0,0,0-1.5.6,2.271,2.271,0,0,0-.6,1.6,2.111,2.111,0,0,0,.6,1.6,2.175,2.175,0,0,0,3,0,2.352,2.352,0,0,0,.6-1.7,2.111,2.111,0,0,0-.6-1.6,2.456,2.456,0,0,0-1.5-.5"/>
      <path id="Path_229" data-name="Path 229" class="cls-1" d="M159.8,43.9l-1.2,1.2a1.877,1.877,0,0,0-1.3-.7.749.749,0,0,0-.5.1c-.2.1-.2.2-.2.4a.367.367,0,0,0,.1.3,5.924,5.924,0,0,0,.6.4l.7.4c.7.4,1.3.7,1.5,1.1a2.01,2.01,0,0,1,.4,1.3,2.609,2.609,0,0,1-.7,1.7,2.724,2.724,0,0,1-2,.7,3.225,3.225,0,0,1-2.7-1.3l1.2-1.3a1.555,1.555,0,0,0,.8.6,1.345,1.345,0,0,0,.8.2.845.845,0,0,0,.6-.2.4.4,0,0,0,.2-.4c0-.3-.3-.6-.8-.9l-.6-.3c-1.2-.6-1.9-1.4-1.9-2.3a1.8,1.8,0,0,1,.7-1.5,2.792,2.792,0,0,1,1.8-.6,3.194,3.194,0,0,1,1.4.3,2.836,2.836,0,0,1,1.1.8"/>
      <path id="Path_230" data-name="Path 230" class="cls-1" d="M165,42.6a4.552,4.552,0,0,1,2,.5,4.306,4.306,0,0,1,1.5,1.5,3.513,3.513,0,0,1,.5,2,4.552,4.552,0,0,1-.5,2,4.306,4.306,0,0,1-1.5,1.5,3.719,3.719,0,0,1-2,.5,4.034,4.034,0,0,1-2.7-7,4.49,4.49,0,0,1,2.7-1m0,1.8a2.035,2.035,0,0,0-1.5.6,2.433,2.433,0,0,0,0,3.2,2.175,2.175,0,0,0,3,0,2.271,2.271,0,0,0,.6-1.6,2.111,2.111,0,0,0-.6-1.6,2.035,2.035,0,0,0-1.5-.6"/>
      <rect id="Rectangle_66" data-name="Rectangle 66" class="cls-1" width="1.9" height="10.6" transform="translate(170.4 39.9)"/>
      <path id="Path_231" data-name="Path 231" class="cls-1" d="M174.1,42.8H176v3.7a5.757,5.757,0,0,0,.1,1.5,1.024,1.024,0,0,0,.5.6,1.077,1.077,0,0,0,.8.2,1.884,1.884,0,0,0,.8-.2,1.794,1.794,0,0,0,.5-.7,4.545,4.545,0,0,0,.1-1.4V42.8h1.9V46a8.237,8.237,0,0,1-.3,2.7,3.142,3.142,0,0,1-1.1,1.4,3.557,3.557,0,0,1-1.9.5,3.173,3.173,0,0,1-2-.6,3.088,3.088,0,0,1-1.1-1.6,12.941,12.941,0,0,1-.2-2.5Z"/>
      <path id="Path_232" data-name="Path 232" class="cls-1" d="M182.9,40h1.9v2.8H186v1.7h-1.2v6h-1.9v-6H182V42.8h.9Z"/>
      <path id="Path_233" data-name="Path 233" class="cls-1" d="M187.8,39.8a1.221,1.221,0,0,1,.9.4,1.268,1.268,0,0,1,.4.9,1.222,1.222,0,0,1-.4.9,1.234,1.234,0,0,1-.8.4,1.221,1.221,0,0,1-.9-.4,1.268,1.268,0,0,1-.4-.9,1.222,1.222,0,0,1,.4-.9c.2-.4.4-.4.8-.4m-1,3h1.9v7.6h-1.9Z"/>
      <path id="Path_234" data-name="Path 234" class="cls-1" d="M194,42.6a4.552,4.552,0,0,1,2,.5,4.306,4.306,0,0,1,1.5,1.5,3.513,3.513,0,0,1,.5,2,4.552,4.552,0,0,1-.5,2,4.306,4.306,0,0,1-1.5,1.5,3.513,3.513,0,0,1-2,.5,4.034,4.034,0,0,1-2.7-7,5,5,0,0,1,2.7-1m.1,1.8a2.035,2.035,0,0,0-1.5.6,2.433,2.433,0,0,0,0,3.2,2.175,2.175,0,0,0,3,0,2.271,2.271,0,0,0,.6-1.6,2.111,2.111,0,0,0-.6-1.6,2.035,2.035,0,0,0-1.5-.6"/>
      <path id="Path_235" data-name="Path 235" class="cls-1" d="M199.7,42.8h1.9v.8a4.184,4.184,0,0,1,1.2-.8,4.253,4.253,0,0,1,1.1-.2,2.56,2.56,0,0,1,1.9.8,2.822,2.822,0,0,1,.7,2v5h-1.9V47.1a7.669,7.669,0,0,0-.1-1.8,1.612,1.612,0,0,0-.4-.7.952.952,0,0,0-.7-.2,1.284,1.284,0,0,0-1,.4,1.975,1.975,0,0,0-.6,1.1,5.349,5.349,0,0,0-.1,1.5v3.1h-1.9l-.1-7.7Z"/>
      <path id="Path_236" data-name="Path 236" class="cls-1" d="M213,43.9l-1.2,1.2a1.877,1.877,0,0,0-1.3-.7.749.749,0,0,0-.5.1c-.1.1-.2.2-.2.3a.367.367,0,0,0,.1.3,5.924,5.924,0,0,0,.6.4l.7.3c.7.4,1.3.7,1.5,1.1a2.01,2.01,0,0,1,.4,1.3,2.193,2.193,0,0,1-.7,1.7,2.724,2.724,0,0,1-2,.7,3.225,3.225,0,0,1-2.7-1.3l1.2-1.3a1.555,1.555,0,0,0,.8.6,1.345,1.345,0,0,0,.8.2.845.845,0,0,0,.6-.2.4.4,0,0,0,.2-.4c0-.3-.3-.6-.8-.9l-.6-.3c-1.2-.6-1.9-1.4-1.9-2.3a1.8,1.8,0,0,1,.7-1.5,2.792,2.792,0,0,1,1.8-.6,3.194,3.194,0,0,1,1.4.3,10.95,10.95,0,0,1,1.1,1"/>
    </g>
  </g>
</svg>
