<svg id="Group_823" data-name="Group 823" xmlns="http://www.w3.org/2000/svg" viewBox="364 1602 143.62 30.695">
  <defs>
    <style>
      .cls-1 {
        fill: #fdb913;
      }

      .cls-2 {
        fill: #231f20;
      }
    </style>
  </defs>
  <path id="Path_65" data-name="Path 65" class="cls-1" d="M156.63,31.1H80.83L75.48,43.86h81.15Z" transform="translate(350.91 1588.835)"/>
  <path id="Path_66" data-name="Path 66" class="cls-2" d="M13.09,31.1V43.86H70.98L76.33,31.1Z" transform="translate(350.91 1588.835)"/>
  <path id="Path_67" data-name="Path 67" class="cls-1" d="M19.34,33.45h1.5l3.59,8.25H22.39L21.68,40H18.47l-.69,1.75h-2Zm.7,2.4-1,2.56h2Z" transform="translate(350.91 1588.835)"/>
  <path id="Path_68" data-name="Path 68" class="cls-1" d="M30.67,35.6a2,2,0,0,0-1.56-.68,2.46,2.46,0,0,0-2.39,2.66A2.45,2.45,0,0,0,29,40.24a2,2,0,0,0,1.7-.89l1.52,1.13a3.6,3.6,0,0,1-3,1.43,4.34,4.34,0,1,1,0-8.67,3.54,3.54,0,0,1,2.79,1.21Z" transform="translate(350.91 1588.835)"/>
  <path id="Path_69" data-name="Path 69" class="cls-1" d="M33.23,33.45H35V41.7H33.23Z" transform="translate(350.91 1588.835)"/>
  <path id="Path_70" data-name="Path 70" class="cls-1" d="M36.71,33.45h2.73c2.66,0,4.88,1.13,4.88,4.15,0,2.67-2.18,4.1-4.64,4.1h-3ZM38.52,40h.94c1.69,0,3-.64,3-2.52,0-1.62-1.29-2.38-2.83-2.38H38.52Z" transform="translate(350.91 1588.835)"/>
  <path id="Path_71" data-name="Path 71" class="cls-2" d="M13.13,13.53h5.44c2.55,0,5.34.52,5.34,3.6a3.21,3.21,0,0,1-2.51,3.12h0a3.43,3.43,0,0,1,3.19,3.46c0,3-2.88,3.94-5.48,3.94h-6Zm3.21,5.66h2.33c1,0,2-.4,2-1.54s-1.15-1.48-2.16-1.48H16.35Zm0,5.86h2.88c1,0,2.14-.42,2.14-1.66s-1.54-1.56-2.6-1.56H16.35Z" transform="translate(350.91 1588.835)"/>
  <path id="Path_72" data-name="Path 72" class="cls-2" d="M31.8,13.53h2.66L40.8,27.69H37.17l-1.26-3H30.25l-1.22,3H25.49ZM33,17.65l-1.77,4.4h3.56Z" transform="translate(350.91 1588.835)"/>
  <path id="Path_73" data-name="Path 73" class="cls-2" d="M43.71,16.29H39.54V13.53H51.08v2.76H46.92v11.4H43.71Z" transform="translate(350.91 1588.835)"/>
  <path id="Path_74" data-name="Path 74" class="cls-2" d="M62.76,17.21A3.49,3.49,0,0,0,60,16.05a4.27,4.27,0,0,0-4.22,4.56,4.25,4.25,0,0,0,4.12,4.56,3.52,3.52,0,0,0,3-1.52l2.68,1.94a6.44,6.44,0,0,1-5.27,2.46c-4.55,0-7.87-2.9-7.87-7.44s3.32-7.44,7.87-7.44a6.35,6.35,0,0,1,4.92,2.08Z" transform="translate(350.91 1588.835)"/>
  <path id="Path_75" data-name="Path 75" class="cls-2" d="M67.85,13.53h3.21v5.28H77.3V13.53h3.21V27.69H77.3V21.57H71.06v6.12H67.85Z" transform="translate(350.91 1588.835)"/>
  <path id="Path_76" data-name="Path 76" class="cls-2" d="M91.21,17a3.16,3.16,0,0,0-2.33-.94c-.91,0-2.16.4-2.16,1.46,0,2.58,6.71.92,6.71,5.88,0,3.16-2.62,4.66-5.62,4.66a7,7,0,0,1-4.9-1.78l2.29-2.44A3.61,3.61,0,0,0,88,25.17c1.05,0,2.22-.48,2.22-1.48,0-2.6-6.84-1.2-6.84-5.92,0-3,2.7-4.6,5.56-4.6a6.72,6.72,0,0,1,4.47,1.48Z" transform="translate(350.91 1588.835)"/>
  <path id="Path_77" data-name="Path 77" class="cls-2" d="M96.34,13.53h5.42c3,0,5.54.94,5.54,4.3s-2.33,4.34-5.4,4.34H99.55v5.52H96.34Zm3.21,6h2.14c1.13,0,2.27-.38,2.27-1.7s-1.53-1.66-2.76-1.66H99.55Z" transform="translate(350.91 1588.835)"/>
  <path id="Path_78" data-name="Path 78" class="cls-2" d="M109.83,13.53h5.64c3,0,5.5,1,5.5,4.3a3.67,3.67,0,0,1-3.15,3.88l3.71,6h-3.85l-3-5.66H113v5.66h-3.21ZM113,19.39h1.89c1.17,0,2.7,0,2.7-1.58s-1.32-1.64-2.49-1.64H113Z" transform="translate(350.91 1588.835)"/>
  <path id="Path_79" data-name="Path 79" class="cls-2" d="M128.49,13.53h2.66l6.34,14.16h-3.62l-1.26-3h-5.67l-1.21,3h-3.54Zm1.24,4.12L128,22.05h3.56Z" transform="translate(350.91 1588.835)"/>
  <path id="Path_80" data-name="Path 80" class="cls-2" d="M141.17,21.65l-5.48-8.12h4l3.09,5.3,3.28-5.3h3.81l-5.48,8.12v6h-3.21Z" transform="translate(350.91 1588.835)"/>
  <path id="Path_81" data-name="Path 81" class="cls-2" d="M153.46,13.35a3.25,3.25,0,1,1-3.25,3.25,3.25,3.25,0,0,1,3.25-3.25Zm0,5.72a2.47,2.47,0,1,0-2.36-2.47A2.42,2.42,0,0,0,153.46,19.07Zm-1.25-4.21h1.21c.37,0,1.45,0,1.45,1.1a.85.85,0,0,1-.79,1l.87,1.36H154L153.25,17h-.15v1.31h-.89Zm.88,1.42h.36c.21,0,.52,0,.52-.37s-.32-.37-.52-.37h-.36Z" transform="translate(350.91 1588.835)"/>
</svg>
