<svg id="Group_825" data-name="Group 825" xmlns="http://www.w3.org/2000/svg" viewBox="1565 1601 143.61 30.695">
  <defs>
    <style>
      .cls-1 {
        fill: #fdb913;
      }

      .cls-2 {
        fill: #231f20;
      }
    </style>
  </defs>
  <path id="Path_102" data-name="Path 102" class="cls-1" d="M143.54,17.92H67.74L62.39,30.69h81.15Z" transform="translate(1565 1601.005)"/>
  <path id="Path_103" data-name="Path 103" class="cls-2" d="M0,17.92V30.69H57.89l5.35-12.77Z" transform="translate(1565 1601.005)"/>
  <path id="Path_104" data-name="Path 104" class="cls-2" d="M107.11,33.21h.74l3.23,8.25h-.8l-.83-2.19h-4.07l-.87,2.19h-.75Zm.34.84-1.79,4.52h3.53Z" transform="translate(1551.92 1588.075)"/>
  <path id="Path_105" data-name="Path 105" class="cls-2" d="M116.4,39.95c0,.4.05,1.24.05,1.52h-.65v-.95h0A1.86,1.86,0,0,1,114,41.6c-1.56,0-1.91-1.14-1.91-2.32v-3.2h.65v3.17c0,.87.23,1.72,1.26,1.72s1.74-.72,1.74-2.2V36.08h.65Z" transform="translate(1551.92 1588.075)"/>
  <path id="Path_106" data-name="Path 106" class="cls-2" d="M120.8,36.71h-1.43v3.51a.67.67,0,0,0,.7.76,1.83,1.83,0,0,0,.74-.19l.05.63a2.7,2.7,0,0,1-.85.19,1.22,1.22,0,0,1-1.29-1.39V36.71h-1.08v-.63h1.08V34.53h.65v1.55h1.43Z" transform="translate(1551.92 1588.075)"/>
  <path id="Path_107" data-name="Path 107" class="cls-2" d="M124.48,35.94a2.84,2.84,0,1,1-2.64,2.83,2.64,2.64,0,0,1,2.64-2.83Zm0,5a2.22,2.22,0,1,0-2-2.2,2,2,0,0,0,2,2.26Z" transform="translate(1551.92 1588.075)"/>
  <path id="Path_108" data-name="Path 108" class="cls-2" d="M128.84,32.65h.65v8.81h-.65Z" transform="translate(1551.92 1588.075)"/>
  <path id="Path_109" data-name="Path 109" class="cls-2" d="M133.85,35.94a2.84,2.84,0,1,1-2.64,2.83,2.64,2.64,0,0,1,2.64-2.83Zm0,5a2.22,2.22,0,1,0-2-2.2,2,2,0,0,0,2,2.26Z" transform="translate(1551.92 1588.075)"/>
  <path id="Path_110" data-name="Path 110" class="cls-2" d="M142,39.2a17.687,17.687,0,0,0,.1,2.26h-.61a5.661,5.661,0,0,1-.06-.87h0a1.8,1.8,0,0,1-1.76,1,1.6,1.6,0,0,1-1.77-1.6c0-1.64,1.79-1.81,2.78-1.81h.76v-.33a1.237,1.237,0,0,0-1.41-1.31,2.17,2.17,0,0,0-1.53.61l-.38-.48a2.81,2.81,0,0,1,1.91-.76,1.76,1.76,0,0,1,2,1.95Zm-1.3-.44c-1.09,0-2.17.29-2.17,1.21a1.06,1.06,0,0,0,1.14,1,1.63,1.63,0,0,0,1.75-1.85v-.36Z" transform="translate(1551.92 1588.075)"/>
  <path id="Path_111" data-name="Path 111" class="cls-2" d="M148.27,40.52h0a2.27,2.27,0,0,1-2,1.08,2.84,2.84,0,0,1,0-5.67,2.27,2.27,0,0,1,2,1.08h0V32.65h.65v8.81h-.65Zm-2-4a2.21,2.21,0,1,0,2.061,2.205A2.22,2.22,0,0,0,146.27,36.52Z" transform="translate(1551.92 1588.075)"/>
  <path id="Path_112" data-name="Path 112" class="cls-2" d="M13.12,13.29h5.44c2.55,0,5.34.52,5.34,3.6A3.21,3.21,0,0,1,21.38,20h0a3.43,3.43,0,0,1,3.19,3.46c0,3-2.88,3.94-5.48,3.94h-6ZM16.33,19h2.33c1,0,2-.4,2-1.54s-1.15-1.48-2.16-1.48H16.33Zm0,5.86h2.88c1,0,2.14-.42,2.14-1.66s-1.54-1.56-2.6-1.56H16.33Z" transform="translate(1551.92 1588.075)"/>
  <path id="Path_113" data-name="Path 113" class="cls-2" d="M31.78,13.29h2.66l6.34,14.16H37.15l-1.26-3H30.23l-1.22,3H25.48ZM33,17.41l-1.77,4.4h3.56Z" transform="translate(1551.92 1588.075)"/>
  <path id="Path_114" data-name="Path 114" class="cls-2" d="M43.69,16.05H39.53V13.29H51.06v2.76H46.9v11.4H43.69Z" transform="translate(1551.92 1588.075)"/>
  <path id="Path_115" data-name="Path 115" class="cls-2" d="M62.74,17A3.49,3.49,0,0,0,60,15.81a4.27,4.27,0,0,0-4.22,4.56,4.25,4.25,0,0,0,4.12,4.56,3.52,3.52,0,0,0,3-1.52l2.68,1.94a6.44,6.44,0,0,1-5.27,2.46c-4.55,0-7.87-2.9-7.87-7.44s3.32-7.44,7.87-7.44A6.35,6.35,0,0,1,65.22,15Z" transform="translate(1551.92 1588.075)"/>
  <path id="Path_116" data-name="Path 116" class="cls-2" d="M67.83,13.29H71v5.28h6.24V13.29H80.5V27.45H77.29V21.33H71v6.12H67.83Z" transform="translate(1551.92 1588.075)"/>
  <path id="Path_117" data-name="Path 117" class="cls-2" d="M91.19,16.75a3.16,3.16,0,0,0-2.33-.94c-.91,0-2.16.4-2.16,1.46,0,2.58,6.72.92,6.72,5.88,0,3.16-2.62,4.66-5.62,4.66A7,7,0,0,1,82.89,26l2.29-2.44A3.61,3.61,0,0,0,88,24.93c1.05,0,2.22-.48,2.22-1.48,0-2.6-6.84-1.2-6.84-5.92,0-3,2.7-4.6,5.56-4.6a6.72,6.72,0,0,1,4.47,1.48Z" transform="translate(1551.92 1588.075)"/>
  <path id="Path_118" data-name="Path 118" class="cls-2" d="M96.32,13.29h5.42c3,0,5.54.94,5.54,4.3s-2.33,4.34-5.4,4.34H99.54v5.52H96.32Zm3.21,6h2.14c1.13,0,2.27-.38,2.27-1.7s-1.52-1.66-2.76-1.66H99.54Z" transform="translate(1551.92 1588.075)"/>
  <path id="Path_119" data-name="Path 119" class="cls-2" d="M109.81,13.29h5.64c3,0,5.5,1,5.5,4.3a3.67,3.67,0,0,1-3.15,3.88l3.71,6h-3.85l-3-5.66H113v5.66h-3.21ZM113,19.15h1.9c1.17,0,2.7,0,2.7-1.58s-1.32-1.64-2.49-1.64H113Z" transform="translate(1551.92 1588.075)"/>
  <path id="Path_120" data-name="Path 120" class="cls-2" d="M128.48,13.29h2.66l6.34,14.16h-3.63l-1.26-3h-5.67l-1.22,3h-3.54Zm1.24,4.12-1.77,4.4h3.56Z" transform="translate(1551.92 1588.075)"/>
  <path id="Path_121" data-name="Path 121" class="cls-2" d="M141.15,21.41l-5.48-8.12h4l3.09,5.3,3.28-5.3h3.81l-5.48,8.12v6h-3.21Z" transform="translate(1551.92 1588.075)"/>
  <path id="Path_122" data-name="Path 122" class="cls-2" d="M153.44,13.11a3.25,3.25,0,1,1-3.25,3.25,3.25,3.25,0,0,1,3.25-3.25Zm0,5.72a2.47,2.47,0,1,0-2.36-2.47,2.42,2.42,0,0,0,2.36,2.47Zm-1.25-4.21h1.21c.37,0,1.45,0,1.45,1.1a.85.85,0,0,1-.79,1l.88,1.36H154l-.78-1.31h-.15V18h-.89Zm.88,1.42h.36c.21,0,.53,0,.53-.37s-.32-.37-.53-.37h-.36Z" transform="translate(1551.92 1588.075)"/>
</svg>
