<svg xmlns="http://www.w3.org/2000/svg" xmlns:xlink="http://www.w3.org/1999/xlink" viewBox="970.458 2122 100 100">
  <defs>
    <style>
      .cls-1 {
        clip-path: url(#clip-path);
      }

      .cls-2 {
        fill: #f9ba00;
      }

      .cls-3 {
        fill: #fff;
      }
    </style>
    <clipPath id="clip-path">
      <rect id="Rectangle_24" data-name="Rectangle 24" width="100" height="100"/>
    </clipPath>
  </defs>
  <g id="Entwicklung" transform="translate(970.458 2122)">
    <g id="Group_21" data-name="Group 21" transform="translate(0 0)">
      <g id="Group_9" data-name="Group 9" class="cls-1" transform="translate(0 0)">
        <path id="Path_160" data-name="Path 160" class="cls-2" d="M23.511,9S11,9,11,21.511V96.489S11,109,23.511,109H98.489S111,109,111,96.489V21.511S111,9,98.489,9H23.511Z" transform="translate(-11 -9)"/>
      </g>
      <g id="Group_10" data-name="Group 10" class="cls-1" transform="translate(0 0)">
        <path id="Path_161" data-name="Path 161" class="cls-3" d="M182.7,171.694a51.978,51.978,0,0,1,4.7-18.72,3.137,3.137,0,0,0-3.407-4.4,7.154,7.154,0,0,0-2.646,1.223,5.148,5.148,0,0,1-5.721,0,7.157,7.157,0,0,0-2.645-1.223,3.136,3.136,0,0,0-3.407,4.4,52.018,52.018,0,0,1,4.7,18.718h3a55.025,55.025,0,0,0-4.983-19.974.123.123,0,0,1,.016-.142.129.129,0,0,1,.142-.054,4.813,4.813,0,0,1,1.518.766,8.131,8.131,0,0,0,9.039,0,4.8,4.8,0,0,1,1.516-.766.129.129,0,0,1,.143.054.123.123,0,0,1,.017.142,55.058,55.058,0,0,0-4.983,19.976Zm-4.645-45.8a19.712,19.712,0,0,1,19.809,19.531,19.478,19.478,0,0,1-3.389,11.046c-3.389,4.967-5.755,9.441-6.1,15.22q-.045.732-.045,1.5H168.265q0-.762-.043-1.494c-.344-5.759-2.675-10.228-6.067-15.166a19.571,19.571,0,0,1,15.9-30.631" transform="translate(-127.952 -101.543)"/>
      </g>
      <g id="Group_11" data-name="Group 11" class="cls-1" transform="translate(0 0)">
        <path id="Path_162" data-name="Path 162" class="cls-3" d="M164.032,166h7.562l2.424,0h7.17c.335-6.047,2.708-10.7,6.366-16.061a17.97,17.97,0,0,0,3.13-10.2,18.325,18.325,0,0,0-18.08-18.037h-.214A18.075,18.075,0,0,0,157.7,149.994c3.542,5.156,5.987,9.916,6.332,16.01m-6.4-41.037a21.067,21.067,0,0,1,32.4,26.665c-3.634,5.33-5.887,9.845-5.887,15.871a1.483,1.483,0,0,1-.022.257A1.5,1.5,0,0,1,182.644,169H162.577a1.5,1.5,0,0,1-1.474-1.242,1.423,1.423,0,0,1-.023-.255c0-6.076-2.238-10.556-5.848-15.812a21.069,21.069,0,0,1,2.4-26.722" transform="translate(-122.264 -95.855)"/>
      </g>
      <g id="Group_12" data-name="Group 12" class="cls-1" transform="translate(0 0)">
        <path id="Path_163" data-name="Path 163" class="cls-3" d="M363.366,261.99a2.246,2.246,0,0,0,.81-4.34l-4.145-1.6a2.245,2.245,0,0,0-1.619,4.188l4.145,1.6a2.238,2.238,0,0,0,.809.151" transform="translate(-284.898 -204.459)"/>
      </g>
      <g id="Group_13" data-name="Group 13" class="cls-1" transform="translate(0 0)">
        <path id="Path_164" data-name="Path 164" class="cls-3" d="M364.3,175.826a2.253,2.253,0,0,0,.479-.052l4.3-.935a2.245,2.245,0,0,0-.955-4.388l-4.3.935a2.246,2.246,0,0,0,.475,4.44" transform="translate(-288.922 -136.774)"/>
      </g>
      <g id="Group_14" data-name="Group 14" class="cls-1" transform="translate(0 0)">
        <path id="Path_165" data-name="Path 165" class="cls-3" d="M323.912,103.225a2.238,2.238,0,0,0,1.577-.647l3.012-2.971a2.245,2.245,0,0,0-3.153-3.2l-3.012,2.971a2.245,2.245,0,0,0,1.577,3.844" transform="translate(-256.944 -77.688)"/>
      </g>
      <g id="Group_15" data-name="Group 15" class="cls-1" transform="translate(0 0)">
        <path id="Path_166" data-name="Path 166" class="cls-3" d="M242.675,68.241A2.245,2.245,0,0,0,244.92,66V61.663a2.245,2.245,0,1,0-4.49,0V66a2.245,2.245,0,0,0,2.245,2.245" transform="translate(-192.632 -48.914)"/>
      </g>
      <g id="Group_16" data-name="Group 16" class="cls-1" transform="translate(0 0)">
        <path id="Path_167" data-name="Path 167" class="cls-3" d="M106.948,261.989a2.232,2.232,0,0,0,.809-.152l4.145-1.6a2.245,2.245,0,1,0-1.619-4.188l-4.145,1.6a2.246,2.246,0,0,0,.81,4.34" transform="translate(-85.18 -204.459)"/>
      </g>
      <g id="Group_17" data-name="Group 17" class="cls-1" transform="translate(0 0)">
        <path id="Path_168" data-name="Path 168" class="cls-3" d="M104.7,175.825a2.245,2.245,0,0,0,.475-4.44l-4.3-.935a2.245,2.245,0,0,0-.955,4.388l4.3.935a2.24,2.24,0,0,0,.479.052" transform="translate(-79.999 -136.774)"/>
      </g>
      <g id="Group_18" data-name="Group 18" class="cls-1" transform="translate(0 0)">
        <path id="Path_169" data-name="Path 169" class="cls-3" d="M149.991,103.226a2.245,2.245,0,0,0,1.577-3.844l-3.012-2.971a2.245,2.245,0,0,0-3.153,3.2l3.012,2.971a2.238,2.238,0,0,0,1.577.647" transform="translate(-116.872 -77.688)"/>
      </g>
      <g id="Group_19" data-name="Group 19" class="cls-1" transform="translate(0 0)">
        <path id="Path_170" data-name="Path 170" class="cls-3" d="M222.918,413.246a6.905,6.905,0,0,0,12.4,0Z" transform="translate(-178.768 -329.028)"/>
      </g>
      <g id="Group_20" data-name="Group 20" class="cls-1" transform="translate(0 0)">
        <path id="Path_171" data-name="Path 171" class="cls-3" d="M204.611,380.914v3.039a2.182,2.182,0,0,0,.115.7h19.791a2.177,2.177,0,0,0,.116-.7v-3.039Z" transform="translate(-164.275 -303.432)"/>
      </g>
    </g>
    <rect id="Rectangle_36" data-name="Rectangle 36" class="cls-3" width="20.022" height="2.841" transform="translate(40.336 71.648)"/>
    <g id="Group_23" data-name="Group 23" transform="translate(0 0)">
      <g id="Group_22" data-name="Group 22" class="cls-1" transform="translate(0 0)">
        <path id="Path_172" data-name="Path 172" class="cls-3" d="M206.9,348.715a1.494,1.494,0,0,0,1.066-1.451.4.4,0,0,0,0-.045H210.3a.4.4,0,0,0,0,.045,1.5,1.5,0,0,0,1.067,1.452H206.9m0,0h0m-8.04-2.991h20.155a1.5,1.5,0,0,1,1.43,1.5v2.841h-2.994v-1.344H200.42v1.344h-2.994V347.22a1.5,1.5,0,0,1,1.431-1.5m18.591,10.369v-3.038h2.994v3.038a3.512,3.512,0,0,1-.069.7h-3.628a.7.7,0,0,0,.7-.7m-12.99,3.7a5.371,5.371,0,0,0,4.48,2.371,5.429,5.429,0,0,0,4.475-2.371h3.36a8.4,8.4,0,0,1-15.672,0Zm-4.039-6.736v3.038a.7.7,0,0,0,.7.7h-3.63a3.615,3.615,0,0,1-.067-.7v-3.038Zm6.477-4.339a1.494,1.494,0,0,0,1.066-1.451.4.4,0,0,0,0-.045H210.3a.4.4,0,0,0,0,.045,1.5,1.5,0,0,0,1.067,1.452H206.9" transform="translate(-158.587 -275.572)"/>
      </g>
    </g>
  </g>
</svg>
