<svg id="Ebene_1" xmlns="http://www.w3.org/2000/svg" viewBox="0 0 841.9 595.3"><style>.st0{fill:#fbba00}.st1{fill:#fff}</style><circle class="st0" cx="421" cy="297" r="140"/><path class="st1" d="M368.5 265.6c3.8 2.9 8 2.3 10.8-1.3 1.7-2.2 2-4.9 1.6-7l-3.7.3c.1.3.7 2.6-.4 4-1.2 1.6-3.4 1.3-5.1 0-1.9-1.4-2.8-3.4-1.8-4.6.9-1.2 2.4-1 3.5-.2l2.4-3.1-4.9-3.7-2.1 2.7.7 1.1c-.3 0-1.9 0-3.2 1.7-1.8 2.3-1.7 7 2.2 10.1zm8.1-17.2l5.8 7.4-1.1.9 1.8 2.2 10.2-8-3-3.8-2.9 2.3 1.2 1.5-2.7 2.2-2.2-2.8 3.2-2.5-1.7-2.3-3.3 2.5-1.8-2.3 2.7-2.1 1.2 1.5 3-2.3-3-3.8-10.2 8 1.7 2.3zm14.1-9.8l3.9 8.6-1.1.5 1.2 2.6 6.3-2.9-1.2-2.6-1.2.5-1.4-3c1.7-.8 2.2-.5 3 1.3 1.1 2.3 2.9 3.1 5.5 1.9 2.2-1 2.2-2.8 1.4-4.4l-.5-1.1-1.3.6.3.6c.2.4.1.7-.2.8-.4.2-.7-.3-1.1-1.1-.6-1.4-2.4-2-3.8-1.6 1.5-1 2.2-2.6 1.5-4.1-1-2.2-2.7-3.6-7.3-1.6l-6.4 2.9 1.2 2.6 1.2-.5zm5-2.3c1.1-.5 2.1-.2 2.6.9.5 1 0 1.9-1.2 2.5l-.9.4-1.5-3.3 1-.5zm13.2-1.1l-.3-2.8 1.8-.2 1.2 9.3-1.7.2.3 2.9 8-1.1-.4-2.8-1.8.2-1.2-9.3 1.8-.2.4 2.8 3.1-.4-.7-5.6-14.3 1.8.7 5.6zm19.4 5.8l-1.4-.1.7-9.3 1.4.1.2-2.8-7.2-.6-.2 2.9 1.4.1-.7 9.3-1.4-.1-.2 2.9 7.1.5zm8.5 5l.8-2.8-2.2-.6.8-2.6 3.9 1.1.8-2.8-4-1.1 1-3.6 3.1.9-.5 1.8 3.7 1 1.3-4.6-12.4-3.4-.8 2.8 1.3.3-2.5 9-1.3-.3-.7 2.8zm6.8-.8l-1.2-.6-1.3 2.6 6.4 3.2 1.3-2.6-1.2-.6 4.2-8.4 1.2.6 1.3-2.5-6.4-3.2-1.3 2.5 1.2.6zm7.7 4.1l-1.1-.8-1.7 2.3 10.3 7.9 2.9-3.8-2.9-2.3-1.2 1.6-2.8-2.1 2.2-2.8 3.2 2.5 1.8-2.3-3.3-2.5 1.8-2.4 2.8 2.2-1.2 1.5 3 2.3 2.9-3.8-10.3-8-1.8 2.3 1.1.8zm10.9 9.1l-.8-1.1-2.3 1.7 4 5.1c3.2 4.2 7.3 4.8 11.2 1.9 3.3-2.5 4-6.8.8-11l-4-5.2-2.3 1.7.8 1.1-7.4 5.8zm10.1-2.2l.5.6c1.4 1.8.2 3.9-1.6 5.3-2.1 1.6-4.4 2.2-5.8.4l-.5-.7 7.4-5.6zM375 340c-.3 0-2.6.3-3.9-1-1.4-1.5-.8-3.6.8-5.1 1.7-1.6 3.8-2.2 4.9-1.1 1.1 1.1.6 2.5-.4 3.5l2.7 2.8 4.4-4.2-2.3-2.5-1.2.5c.1-.3.3-1.9-1.2-3.4-1.9-2-6.7-2.7-10.3.7-3.5 3.3-3.5 7.5-.4 10.9 1.9 2 4.5 2.7 6.7 2.6l.2-3.7zm16 7.2l2.9-3.8-10.3-7.9-1.7 2.2 1.1.9-5.7 7.4-1.1-.8-1.7 2.2 10.3 7.9 2.9-3.8-2.9-2.3-1.2 1.6-2.8-2.1 2.2-2.8 3.2 2.5 1.8-2.3-3.3-2.5 1.8-2.3 2.8 2.1-1.2 1.5zm10.1-.7l-6.5-2.7-1.1 2.6 1.1.5-3.7 8.7-1.1-.5-1.1 2.6 6.4 2.7 1.1-2.6-1.2-.5 1.3-3.1c1.8.7 1.8 1.3 1 3.1-1 2.3-.3 4.2 2.3 5.3 2.2.9 3.5-.3 4.2-2l.5-1.1-1.3-.6-.3.7c-.2.4-.4.6-.7.4-.4-.2-.3-.7.1-1.6.6-1.4-.1-3.1-1.4-3.9 1.7.5 3.4-.1 4.1-1.7 1-2.1.9-4.3-3.7-6.3zm-.3 5c-.4 1.1-1.4 1.3-2.6.8l-.9-.4 1.4-3.4 1 .4c1.2.6 1.6 1.4 1.1 2.6zm5.2 3.2l3.1.3.3-2.7 1.9.2-1.1 9.3-1.7-.2-.3 2.8 7.9.9.4-2.8-1.8-.2 1-9.3 1.8.2-.3 2.7 3.1.4.7-5.6-14.4-1.6zm22.3 7.9l-.5-9.3 1.3-.1-.2-2.8-7.1.4.2 2.9 1.3-.1.6 9.3-1.4.1.2 2.9 7.1-.5-.1-2.8zm11.4-10l3.7-.9-1.3-4.6-12.4 3.3.7 2.7 1.3-.3 2.4 9-1.3.4.7 2.7 7.8-2-.7-2.8-2.2.6-.7-2.7 4-1-.7-2.8-4 1-1-3.6 3.2-.8zm13.5 2.7l-4.1-8.4 1.2-.6-1.2-2.6-6.5 3.1 1.3 2.6 1.2-.6 4 8.5-1.2.5 1.3 2.6 6.4-3.1-1.2-2.6zm10-9.1l1.2 1.6-2.8 2.1-2.1-2.9 3.3-2.4-1.7-2.3-3.3 2.4-1.7-2.4 2.8-2 1.1 1.5 3-2.2-2.8-3.8-10.5 7.7 1.7 2.3 1.1-.8 5.5 7.5-1 .8 1.7 2.3 10.4-7.7-2.9-3.9zm12.4-17.6c-3.2-2.6-7.6-2.3-10.9 1.7l-4.2 5.1 2.2 1.8.8-1 7.2 5.9-.8 1 2.2 1.8 4.1-5c3.6-4.1 3.3-8.2-.6-11.3zm-1.4 9.5l-.5.6-7.2-5.9.5-.6c1.4-1.8 3.7-1.1 5.5.3 2.1 1.7 3.1 3.8 1.7 5.6zM421 253.9c-16.6 0-31 9.4-38.2 23.1h4c6.9-11.7 19.6-19.6 34.1-19.6s27.2 7.9 34.1 19.6h4c-7-13.8-21.4-23.1-38-23.1zm38.2 63.1h-4c-6.9 11.7-19.6 19.6-34.1 19.6s-27.2-7.9-34.1-19.6h-4c7.2 13.7 21.6 23.1 38.2 23.1s30.8-9.3 38-23.1z"/><path class="st1" d="M502.2 277c-9-36.5-41.9-63.6-81.2-63.6-39.3 0-72.2 27.1-81.2 63.6-1.6 6.4-2.4 13.1-2.4 20s.8 13.6 2.4 20c9 36.5 41.9 63.6 81.2 63.6 39.3 0 72.2-27.1 81.2-63.6 1.6-6.4 2.4-13.1 2.4-20s-.8-13.6-2.4-20zm-3.9 40c-8.9 34.4-40.2 59.8-77.3 59.8s-68.4-25.5-77.3-59.8c-1.7-6.4-2.5-13.1-2.5-20s.9-13.6 2.5-20c8.9-34.4 40.2-59.8 77.3-59.8 37.1 0 68.4 25.5 77.3 59.8 1.7 6.4 2.5 13.1 2.5 20 .1 6.9-.8 13.6-2.5 20zm-117.8 80.6c.2 0 .3.1.3.3v.9c0 .2-.1.3-.3.3h-3.7c-.9 0-1.5.3-1.5 1v.3c0 .6.3 1 1.2 1.4l2.7 1.1c1.8.7 2 1.7 2 2.8v.2c0 2.2-1.3 2.7-4 2.7-1.7 0-3.3-.1-3.7-.2-.2 0-.3-.1-.3-.3v-.9c0-.2.1-.3.3-.3h3.7c1.6 0 2.1-.2 2.1-1v-.2c0-.6-.2-1-1.2-1.3l-2.8-1.1c-1.5-.6-1.9-1.8-1.9-2.9v-.4c0-2.2 1.9-2.5 4.1-2.5.8-.1 1.9 0 3 .1zm5.1-3.3c0 .8-.4 1.2-1.2 1.2-.8 0-1.2-.4-1.2-1.2 0-.8.4-1.2 1.2-1.2.8.1 1.2.5 1.2 1.2zm-.6 3.2c.2 0 .3.1.3.3v10.3c0 .2-.1.3-.3.3h-1.3c-.2 0-.3-.1-.3-.3v-10.3c0-.2.1-.3.3-.3h1.3zm12.2 4.6v6.1c0 .2-.1.3-.3.3h-1.3c-.2 0-.3-.1-.3-.3v-5.9c0-3.1-.6-3.2-2.5-3.2H390v9.1c0 .2-.1.3-.3.3h-1.3c-.2 0-.3-.1-.3-.3v-10.1c0-.3.1-.3.3-.3 1.6-.3 3.2-.3 4.2-.3 3.5-.1 4.6.4 4.6 4.6zm10-4.5c.2 0 .3.1.3.3v.9c0 .2-.1.3-.3.3h-3c-2.4 0-2.7.8-2.7 3.9 0 3.1.3 3.9 2.7 3.9h3c.2 0 .3.1.3.3v.9c0 .2-.1.3-.3.3-1 .1-2.2.2-3 .2-3.9 0-4.6-1.1-4.6-5.6s.8-5.6 4.6-5.6c.8 0 2 .1 3 .2zm11.1 5.1v.6c0 .4-.1.6-.7.6h-6.4c.1 2.4.5 3 2.7 3h3.3c.2 0 .3.1.3.3v.9c0 .2-.1.3-.3.3-1 .1-2.1.2-3.3.2-3.8 0-4.6-1.1-4.6-5.6s.8-5.6 4.6-5.6c3.5 0 4.3 1.1 4.4 5.3zm-7.1-.4h5.2c0-2.5-.5-3.2-2.5-3.2-2.3 0-2.7.6-2.7 3.2zm23.2-5.7v1.4c0 1.4-.2 2.6-1.8 3.4l-4.6 2.5c-1.1.6-1.4 1.1-1.4 2v.7h7.7c.1 0 .1 0 .1.1v1.5c0 .1 0 .1-.1.1h-9.5c-.4 0-.5-.2-.5-.6v-1.8c0-1.7.6-2.6 2.5-3.6l4.7-2.6c.6-.4.7-1 .7-1.9v-1.2c0-1.6-1.5-1.8-3.3-1.8h-3.8c-.1 0-.1 0-.1-.1v-1.1c0-.1 0-.2.2-.2 1.6-.2 2.2-.3 3.8-.3 2.9.1 5.4.5 5.4 3.5zm13.4 4.3c0 5.9-1.1 7.6-5.5 7.6-4.5 0-5.5-1.7-5.5-7.6 0-5.9 1.1-7.7 5.5-7.7s5.5 1.8 5.5 7.7zm-9 0c0 4.5.7 5.9 3.5 5.9s3.5-1.3 3.5-5.9c0-4.6-.7-5.9-3.5-5.9-2.9 0-3.5 1.4-3.5 5.9zm18.4 5.8c.2 0 .3.1.3.3v1.2c0 .2-.1.3-.3.3h-7c-.2 0-.3-.1-.3-.3V407c0-.2.1-.3.3-.3h2.6v-10.6c0-.9-.4-1.1-1.7-1.1H450c-.2 0-.3-.1-.3-.3v-.9c0-.2.1-.3.3-.3.4-.1 1.1-.2 1.6-.2 1.2 0 3.3.1 3.3 2.3v11.1h2.3zm11.1-9.5v.4c0 1.6-.5 2.9-1.7 3.3 1.2.4 1.7 1.7 1.7 3.3v.3c0 3.3-1.3 4.1-6.2 4.1-.9 0-1.9-.1-2.9-.2-.2 0-.3 0-.3-.2V407c0-.1.1-.2.3-.2h3c3.4 0 4.1-.5 4.1-2.4v-.1c0-1.8-.4-2.5-2.6-2.5h-3.8c-.2 0-.2-.1-.2-.2v-1.2c0-.2 0-.2.2-.2h3.8c2.2 0 2.6-.7 2.6-2.5v-.3c0-1.9-.9-2.2-4.3-2.2h-2.9c-.2 0-.3 0-.3-.2v-1.2c0-.1.1-.2.3-.2 1-.1 2-.2 2.9-.2 5-.2 6.3.5 6.3 3.8z"/><path class="st1" d="M356.5 285c.3 0 .5.2.5.5V310c0 .4-.2.5-.5.5h-4.2c-.3 0-.5-.2-.5-.5v-24.5c0-.4.2-.5.5-.5h4.2zm20.5.4c.4.1.6.3.6.6v2.7c0 .4-.2.6-.6.6h-7.8c-2 0-3 .7-3 2.1v.5c0 1.2.5 1.9 1.9 2.5l6.2 2.4c3.2 1.3 4.6 2.8 4.6 6.6v.9c0 4.9-3.8 6.3-9.5 6.3-2.4 0-5-.2-8.2-.7-.4-.1-.6-.3-.6-.7v-2.5c0-.4.2-.6.6-.6h9.4c2 0 3-.6 3-2v-.4c0-1.4-.7-2.1-2.4-2.7l-6.4-2.4c-2.7-1-3.9-2.9-3.9-6.7v-.7c0-4.9 3.4-6.3 9.2-6.3 2.8-.1 4.3.1 6.9.5zm25.9 12.4c0 10-2.3 12.9-10.7 12.9-8.4 0-10.7-2.9-10.7-12.9s2.3-13 10.7-13c8.4 0 10.7 3 10.7 13zm-16.2 0c0 6.4.9 8.4 5.4 8.4s5.4-2 5.4-8.4c0-6.5-.9-8.5-5.4-8.5s-5.4 2-5.4 8.5zm44.1-6.2v2.4c0 1.4-.2 2.3-.7 3.4l-6.5 12.8c-.1.2-.3.3-.6.3h-4.5c-.4 0-.5-.3-.3-.6l4.8-9.5c-.7.2-1.6.3-2.5.3-5.5 0-8.5-2-8.5-6.6v-2.4c0-5.3 3.6-6.8 9.3-6.8 5.8-.1 9.5 1.4 9.5 6.7zm-13.5 1.2v.1c0 2.5.7 3.4 4.1 3.4 3.4 0 4.3-1 4.3-3.4v-.2c0-2.4-.9-3.4-4.3-3.4-3.4.1-4.1 1-4.1 3.5zm35.9 5c0 10-1.9 12.9-9.8 12.9s-9.8-2.9-9.8-12.9 1.9-13 9.8-13 9.8 3 9.8 13zm-14.4 0c0 6.5.9 8.4 4.6 8.4 3.7 0 4.6-1.9 4.6-8.4s-.9-8.5-4.6-8.5c-3.7 0-4.6 2-4.6 8.5zm37.1 0c0 10-1.9 12.9-9.8 12.9s-9.8-2.9-9.8-12.9 1.9-13 9.8-13 9.8 3 9.8 13zm-14.3 0c0 6.5.9 8.4 4.6 8.4 3.7 0 4.6-1.9 4.6-8.4s-.9-8.5-4.6-8.5c-3.8 0-4.6 2-4.6 8.5zm31 8.2c.3 0 .5.2.5.5v3.5c0 .3-.2.5-.5.5h-13.2c-.3 0-.5-.2-.5-.5v-3.5c0-.3.2-.5.5-.5h4.2v-15.2c0-1.5-.6-1.7-2.3-1.7h-2.1c-.4 0-.6-.1-.6-.5v-2.8c0-.4.2-.6.5-.6 1.2-.3 2.5-.4 3.4-.4 3 0 6.1.5 6.1 4.7V306h4z"/></svg>