<?xml version="1.0" encoding="utf-8"?>
<!-- Generator: Adobe Illustrator 21.1.0, SVG Export Plug-In . SVG Version: 6.00 Build 0)  -->
<svg version="1.1" id="Ebene_1" xmlns="http://www.w3.org/2000/svg" xmlns:xlink="http://www.w3.org/1999/xlink" x="0px" y="0px"
	 viewBox="0 0 841.9 595.3" style="enable-background:new 0 0 841.9 595.3;" xml:space="preserve">
<style type="text/css">
	.st0{fill:#FBBA00;}
	.st1{fill:#FFFFFF;}
</style>
<circle class="st0" cx="421" cy="297" r="140"/>
<path class="st1" d="M368.5,265.6c3.8,2.9,8,2.3,10.8-1.3c1.7-2.2,2-4.9,1.6-7l-3.7,0.3c0.1,0.3,0.7,2.6-0.4,4
	c-1.2,1.6-3.4,1.3-5.1,0c-1.9-1.4-2.8-3.4-1.8-4.6c0.9-1.2,2.4-1,3.5-0.2l2.4-3.1l-4.9-3.7l-2.1,2.7l0.7,1.1c-0.3,0-1.9,0-3.2,1.7
	C364.5,257.8,364.6,262.5,368.5,265.6z"/>
<polygon class="st1" points="376.6,248.4 382.4,255.8 381.3,256.7 383.1,258.9 393.3,250.9 390.3,247.1 387.4,249.4 388.6,250.9 
	385.9,253.1 383.7,250.3 386.9,247.8 385.2,245.5 381.9,248 380.1,245.7 382.8,243.6 384,245.1 387,242.8 384,239 373.8,247 
	375.5,249.3 "/>
<path class="st1" d="M390.7,238.6l3.9,8.6l-1.1,0.5l1.2,2.6l6.3-2.9l-1.2-2.6l-1.2,0.5l-1.4-3c1.7-0.8,2.2-0.5,3,1.3
	c1.1,2.3,2.9,3.1,5.5,1.9c2.2-1,2.2-2.8,1.4-4.4l-0.5-1.1l-1.3,0.6l0.3,0.6c0.2,0.4,0.1,0.7-0.2,0.8c-0.4,0.2-0.7-0.3-1.1-1.1
	c-0.6-1.4-2.4-2-3.8-1.6c1.5-1,2.2-2.6,1.5-4.1c-1-2.2-2.7-3.6-7.3-1.6l-6.4,2.9l1.2,2.6L390.7,238.6z M395.7,236.3
	c1.1-0.5,2.1-0.2,2.6,0.9c0.5,1,0,1.9-1.2,2.5l-0.9,0.4l-1.5-3.3L395.7,236.3z"/>
<polygon class="st1" points="408.9,235.2 408.6,232.4 410.4,232.2 411.6,241.5 409.9,241.7 410.2,244.6 418.2,243.5 417.8,240.7 
	416,240.9 414.8,231.6 416.6,231.4 417,234.2 420.1,233.8 419.4,228.2 405.1,230 405.8,235.6 "/>
<polygon class="st1" points="428.3,241 426.9,240.9 427.6,231.6 429,231.7 429.2,228.9 422,228.3 421.8,231.2 423.2,231.3 
	422.5,240.6 421.1,240.5 420.9,243.4 428,243.9 "/>
<polygon class="st1" points="436.8,246 437.6,243.2 435.4,242.6 436.2,240 440.1,241.1 440.9,238.3 436.9,237.2 437.9,233.6 
	441,234.5 440.5,236.3 444.2,237.3 445.5,232.7 433.1,229.3 432.3,232.1 433.6,232.4 431.1,241.4 429.8,241.1 429.1,243.9 "/>
<polygon class="st1" points="443.6,245.2 442.4,244.6 441.1,247.2 447.5,250.4 448.8,247.8 447.6,247.2 451.8,238.8 453,239.4 
	454.3,236.9 447.9,233.7 446.6,236.2 447.8,236.8 "/>
<polygon class="st1" points="451.3,249.3 450.2,248.5 448.5,250.8 458.8,258.7 461.7,254.9 458.8,252.6 457.6,254.2 454.8,252.1 
	457,249.3 460.2,251.8 462,249.5 458.7,247 460.5,244.6 463.3,246.8 462.1,248.3 465.1,250.6 468,246.8 457.7,238.8 455.9,241.1 
	457,241.9 "/>
<path class="st1" d="M462.2,258.4l-0.8-1.1l-2.3,1.7l4,5.1c3.2,4.2,7.3,4.8,11.2,1.9c3.3-2.5,4-6.8,0.8-11l-4-5.2l-2.3,1.7l0.8,1.1
	L462.2,258.4z M472.3,256.2l0.5,0.6c1.4,1.8,0.2,3.9-1.6,5.3c-2.1,1.6-4.4,2.2-5.8,0.4l-0.5-0.7L472.3,256.2z"/>
<path class="st1" d="M375,340c-0.3,0-2.6,0.3-3.9-1c-1.4-1.5-0.8-3.6,0.8-5.1c1.7-1.6,3.8-2.2,4.9-1.1c1.1,1.1,0.6,2.5-0.4,3.5
	l2.7,2.8l4.4-4.2l-2.3-2.5l-1.2,0.5c0.1-0.3,0.3-1.9-1.2-3.4c-1.9-2-6.7-2.7-10.3,0.7c-3.5,3.3-3.5,7.5-0.4,10.9
	c1.9,2,4.5,2.7,6.7,2.6L375,340z"/>
<polygon class="st1" points="391,347.2 393.9,343.4 383.6,335.5 381.9,337.7 383,338.6 377.3,346 376.2,345.2 374.5,347.4 
	384.8,355.3 387.7,351.5 384.8,349.2 383.6,350.8 380.8,348.7 383,345.9 386.2,348.4 388,346.1 384.7,343.6 386.5,341.3 
	389.3,343.4 388.1,344.9 "/>
<path class="st1" d="M401.1,346.5l-6.5-2.7l-1.1,2.6l1.1,0.5l-3.7,8.7l-1.1-0.5l-1.1,2.6l6.4,2.7l1.1-2.6l-1.2-0.5l1.3-3.1
	c1.8,0.7,1.8,1.3,1,3.1c-1,2.3-0.3,4.2,2.3,5.3c2.2,0.9,3.5-0.3,4.2-2l0.5-1.1l-1.3-0.6l-0.3,0.7c-0.2,0.4-0.4,0.6-0.7,0.4
	c-0.4-0.2-0.3-0.7,0.1-1.6c0.6-1.4-0.1-3.1-1.4-3.9c1.7,0.5,3.4-0.1,4.1-1.7C405.8,350.7,405.7,348.5,401.1,346.5z M400.8,351.5
	c-0.4,1.1-1.4,1.3-2.6,0.8l-0.9-0.4l1.4-3.4l1,0.4C400.9,349.5,401.3,350.3,400.8,351.5z"/>
<polygon class="st1" points="406,354.7 409.1,355 409.4,352.3 411.3,352.5 410.2,361.8 408.5,361.6 408.2,364.4 416.1,365.3 
	416.5,362.5 414.7,362.3 415.7,353 417.5,353.2 417.2,355.9 420.3,356.3 421,350.7 406.6,349.1 "/>
<polygon class="st1" points="428.3,362.6 427.8,353.3 429.1,353.2 428.9,350.4 421.8,350.8 422,353.7 423.3,353.6 423.9,362.9 
	422.5,363 422.7,365.9 429.8,365.4 429.7,362.6 "/>
<polygon class="st1" points="439.7,352.6 443.4,351.7 442.1,347.1 429.7,350.4 430.4,353.1 431.7,352.8 434.1,361.8 432.8,362.2 
	433.5,364.9 441.3,362.9 440.6,360.1 438.4,360.7 437.7,358 441.7,357 441,354.2 437,355.2 436,351.6 439.2,350.8 "/>
<polygon class="st1" points="453.2,355.3 449.1,346.9 450.3,346.3 449.1,343.7 442.6,346.8 443.9,349.4 445.1,348.8 449.1,357.3 
	447.9,357.8 449.2,360.4 455.6,357.3 454.4,354.7 "/>
<polygon class="st1" points="463.2,346.2 464.4,347.8 461.6,349.9 459.5,347 462.8,344.6 461.1,342.3 457.8,344.7 456.1,342.3 
	458.9,340.3 460,341.8 463,339.6 460.2,335.8 449.7,343.5 451.4,345.8 452.5,345 458,352.5 457,353.3 458.7,355.6 469.1,347.9 
	466.2,344 "/>
<path class="st1" d="M475.6,328.6c-3.2-2.6-7.6-2.3-10.9,1.7l-4.2,5.1l2.2,1.8l0.8-1l7.2,5.9l-0.8,1l2.2,1.8l4.1-5
	C479.8,335.8,479.5,331.7,475.6,328.6z M474.2,338.1l-0.5,0.6l-7.2-5.9l0.5-0.6c1.4-1.8,3.7-1.1,5.5,0.3
	C474.6,334.2,475.6,336.3,474.2,338.1z"/>
<path class="st1" d="M421,253.9c-16.6,0-31,9.4-38.2,23.1h4c6.9-11.7,19.6-19.6,34.1-19.6c14.5,0,27.2,7.9,34.1,19.6h4
	C452,263.2,437.6,253.9,421,253.9z"/>
<path class="st1" d="M459.2,317h-4c-6.9,11.7-19.6,19.6-34.1,19.6c-14.5,0-27.2-7.9-34.1-19.6h-4c7.2,13.7,21.6,23.1,38.2,23.1
	S452,330.8,459.2,317z"/>
<path class="st1" d="M502.2,277c-9-36.5-41.9-63.6-81.2-63.6c-39.3,0-72.2,27.1-81.2,63.6c-1.6,6.4-2.4,13.1-2.4,20s0.8,13.6,2.4,20
	c9,36.5,41.9,63.6,81.2,63.6c39.3,0,72.2-27.1,81.2-63.6c1.6-6.4,2.4-13.1,2.4-20S503.8,283.4,502.2,277z M498.3,317
	c-8.9,34.4-40.2,59.8-77.3,59.8s-68.4-25.5-77.3-59.8c-1.7-6.4-2.5-13.1-2.5-20c0-6.9,0.9-13.6,2.5-20c8.9-34.4,40.2-59.8,77.3-59.8
	c37.1,0,68.4,25.5,77.3,59.8c1.7,6.4,2.5,13.1,2.5,20C500.9,303.9,500,310.6,498.3,317z"/>
<g>
	<path class="st1" d="M380.5,397.6c0.2,0,0.3,0.1,0.3,0.3v0.9c0,0.2-0.1,0.3-0.3,0.3h-3.7c-0.9,0-1.5,0.3-1.5,1v0.3
		c0,0.6,0.3,1,1.2,1.4l2.7,1.1c1.8,0.7,2,1.7,2,2.8v0.2c0,2.2-1.3,2.7-4,2.7c-1.7,0-3.3-0.1-3.7-0.2c-0.2,0-0.3-0.1-0.3-0.3v-0.9
		c0-0.2,0.1-0.3,0.3-0.3h3.7c1.6,0,2.1-0.2,2.1-1v-0.2c0-0.6-0.2-1-1.2-1.3l-2.8-1.1c-1.5-0.6-1.9-1.8-1.9-2.9v-0.4
		c0-2.2,1.9-2.5,4.1-2.5C378.3,397.4,379.4,397.5,380.5,397.6z"/>
	<path class="st1" d="M385.6,394.3c0,0.8-0.4,1.2-1.2,1.2c-0.8,0-1.2-0.4-1.2-1.2c0-0.8,0.4-1.2,1.2-1.2
		C385.2,393.2,385.6,393.6,385.6,394.3z M385,397.5c0.2,0,0.3,0.1,0.3,0.3v10.3c0,0.2-0.1,0.3-0.3,0.3h-1.3c-0.2,0-0.3-0.1-0.3-0.3
		v-10.3c0-0.2,0.1-0.3,0.3-0.3H385z"/>
	<path class="st1" d="M397.2,402.1v6.1c0,0.2-0.1,0.3-0.3,0.3h-1.3c-0.2,0-0.3-0.1-0.3-0.3v-5.9c0-3.1-0.6-3.2-2.5-3.2H390v9.1
		c0,0.2-0.1,0.3-0.3,0.3h-1.3c-0.2,0-0.3-0.1-0.3-0.3v-10.1c0-0.3,0.1-0.3,0.3-0.3c1.6-0.3,3.2-0.3,4.2-0.3
		C396.1,397.4,397.2,397.9,397.2,402.1z"/>
	<path class="st1" d="M407.2,397.6c0.2,0,0.3,0.1,0.3,0.3v0.9c0,0.2-0.1,0.3-0.3,0.3h-3c-2.4,0-2.7,0.8-2.7,3.9
		c0,3.1,0.3,3.9,2.7,3.9h3c0.2,0,0.3,0.1,0.3,0.3v0.9c0,0.2-0.1,0.3-0.3,0.3c-1,0.1-2.2,0.2-3,0.2c-3.9,0-4.6-1.1-4.6-5.6
		c0-4.5,0.8-5.6,4.6-5.6C405,397.4,406.2,397.5,407.2,397.6z"/>
	<path class="st1" d="M418.3,402.7v0.6c0,0.4-0.1,0.6-0.7,0.6h-6.4c0.1,2.4,0.5,3,2.7,3h3.3c0.2,0,0.3,0.1,0.3,0.3v0.9
		c0,0.2-0.1,0.3-0.3,0.3c-1,0.1-2.1,0.2-3.3,0.2c-3.8,0-4.6-1.1-4.6-5.6c0-4.5,0.8-5.6,4.6-5.6C417.4,397.4,418.2,398.5,418.3,402.7
		z M411.2,402.3h5.2c0-2.5-0.5-3.2-2.5-3.2C411.6,399.1,411.2,399.7,411.2,402.3z"/>
	<path class="st1" d="M434.4,396.6v1.4c0,1.4-0.2,2.6-1.8,3.4l-4.6,2.5c-1.1,0.6-1.4,1.1-1.4,2v0.7h7.7c0.1,0,0.1,0,0.1,0.1v1.5
		c0,0.1,0,0.1-0.1,0.1h-9.5c-0.4,0-0.5-0.2-0.5-0.6v-1.8c0-1.7,0.6-2.6,2.5-3.6l4.7-2.6c0.6-0.4,0.7-1,0.7-1.9v-1.2
		c0-1.6-1.5-1.8-3.3-1.8h-3.8c-0.1,0-0.1,0-0.1-0.1v-1.1c0-0.1,0-0.2,0.2-0.2c1.6-0.2,2.2-0.3,3.8-0.3
		C431.9,393.2,434.4,393.6,434.4,396.6z"/>
	<path class="st1" d="M447.8,400.9c0,5.9-1.1,7.6-5.5,7.6c-4.5,0-5.5-1.7-5.5-7.6c0-5.9,1.1-7.7,5.5-7.7
		C446.7,393.2,447.8,395,447.8,400.9z M438.8,400.9c0,4.5,0.7,5.9,3.5,5.9c2.8,0,3.5-1.3,3.5-5.9c0-4.6-0.7-5.9-3.5-5.9
		C439.4,395,438.8,396.4,438.8,400.9z"/>
	<path class="st1" d="M457.2,406.7c0.2,0,0.3,0.1,0.3,0.3v1.2c0,0.2-0.1,0.3-0.3,0.3h-7c-0.2,0-0.3-0.1-0.3-0.3V407
		c0-0.2,0.1-0.3,0.3-0.3h2.6v-10.6c0-0.9-0.4-1.1-1.7-1.1h-1.1c-0.2,0-0.3-0.1-0.3-0.3v-0.9c0-0.2,0.1-0.3,0.3-0.3
		c0.4-0.1,1.1-0.2,1.6-0.2c1.2,0,3.3,0.1,3.3,2.3v11.1H457.2z"/>
	<path class="st1" d="M468.3,397.2v0.4c0,1.6-0.5,2.9-1.7,3.3c1.2,0.4,1.7,1.7,1.7,3.3v0.3c0,3.3-1.3,4.1-6.2,4.1
		c-0.9,0-1.9-0.1-2.9-0.2c-0.2,0-0.3,0-0.3-0.2V407c0-0.1,0.1-0.2,0.3-0.2h3c3.4,0,4.1-0.5,4.1-2.4v-0.1c0-1.8-0.4-2.5-2.6-2.5h-3.8
		c-0.2,0-0.2-0.1-0.2-0.2v-1.2c0-0.2,0-0.2,0.2-0.2h3.8c2.2,0,2.6-0.7,2.6-2.5v-0.3c0-1.9-0.9-2.2-4.3-2.2h-2.9
		c-0.2,0-0.3,0-0.3-0.2v-1.2c0-0.1,0.1-0.2,0.3-0.2c1-0.1,2-0.2,2.9-0.2C467,393.2,468.3,393.9,468.3,397.2z"/>
</g>
<g>
	<path class="st1" d="M356.5,285c0.3,0,0.5,0.2,0.5,0.5V310c0,0.4-0.2,0.5-0.5,0.5h-4.2c-0.3,0-0.5-0.2-0.5-0.5v-24.5
		c0-0.4,0.2-0.5,0.5-0.5H356.5z"/>
	<path class="st1" d="M377,285.4c0.4,0.1,0.6,0.3,0.6,0.6v2.7c0,0.4-0.2,0.6-0.6,0.6h-7.8c-2,0-3,0.7-3,2.1v0.5
		c0,1.2,0.5,1.9,1.9,2.5l6.2,2.4c3.2,1.3,4.6,2.8,4.6,6.6v0.9c0,4.9-3.8,6.3-9.5,6.3c-2.4,0-5-0.2-8.2-0.7c-0.4-0.1-0.6-0.3-0.6-0.7
		v-2.5c0-0.4,0.2-0.6,0.6-0.6h9.4c2,0,3-0.6,3-2v-0.4c0-1.4-0.7-2.1-2.4-2.7l-6.4-2.4c-2.7-1-3.9-2.9-3.9-6.7v-0.7
		c0-4.9,3.4-6.3,9.2-6.3C372.9,284.8,374.4,285,377,285.4z"/>
	<path class="st1" d="M402.9,297.8c0,10-2.3,12.9-10.7,12.9c-8.4,0-10.7-2.9-10.7-12.9c0-10,2.3-13,10.7-13
		C400.6,284.8,402.9,287.8,402.9,297.8z M386.7,297.8c0,6.4,0.9,8.4,5.4,8.4s5.4-2,5.4-8.4c0-6.5-0.9-8.5-5.4-8.5
		S386.7,291.3,386.7,297.8z"/>
	<path class="st1" d="M430.8,291.6v2.4c0,1.4-0.2,2.3-0.7,3.4l-6.5,12.8c-0.1,0.2-0.3,0.3-0.6,0.3h-4.5c-0.4,0-0.5-0.3-0.3-0.6
		l4.8-9.5c-0.7,0.2-1.6,0.3-2.5,0.3c-5.5,0-8.5-2-8.5-6.6v-2.4c0-5.3,3.6-6.8,9.3-6.8C427.1,284.8,430.8,286.3,430.8,291.6z
		 M417.3,292.8v0.1c0,2.5,0.7,3.4,4.1,3.4c3.4,0,4.3-1,4.3-3.4v-0.2c0-2.4-0.9-3.4-4.3-3.4C418,289.4,417.3,290.3,417.3,292.8z"/>
	<path class="st1" d="M453.2,297.8c0,10-1.9,12.9-9.8,12.9c-7.9,0-9.8-2.9-9.8-12.9c0-10,1.9-13,9.8-13
		C451.3,284.8,453.2,287.8,453.2,297.8z M438.8,297.8c0,6.5,0.9,8.4,4.6,8.4c3.7,0,4.6-1.9,4.6-8.4c0-6.5-0.9-8.5-4.6-8.5
		C439.7,289.3,438.8,291.3,438.8,297.8z"/>
	<path class="st1" d="M475.9,297.8c0,10-1.9,12.9-9.8,12.9c-7.9,0-9.8-2.9-9.8-12.9c0-10,1.9-13,9.8-13
		C474,284.8,475.9,287.8,475.9,297.8z M461.6,297.8c0,6.5,0.9,8.4,4.6,8.4c3.7,0,4.6-1.9,4.6-8.4c0-6.5-0.9-8.5-4.6-8.5
		C462.4,289.3,461.6,291.3,461.6,297.8z"/>
	<path class="st1" d="M492.6,306c0.3,0,0.5,0.2,0.5,0.5v3.5c0,0.3-0.2,0.5-0.5,0.5h-13.2c-0.3,0-0.5-0.2-0.5-0.5l0-3.5
		c0-0.3,0.2-0.5,0.5-0.5h4.2v-15.2c0-1.5-0.6-1.7-2.3-1.7h-2.1c-0.4,0-0.6-0.1-0.6-0.5v-2.8c0-0.4,0.2-0.6,0.5-0.6
		c1.2-0.3,2.5-0.4,3.4-0.4c3,0,6.1,0.5,6.1,4.7V306H492.6z"/>
</g>
</svg>
