<?xml version="1.0" encoding="utf-8"?>
<!-- Generator: Adobe Illustrator 21.0.2, SVG Export Plug-In . SVG Version: 6.00 Build 0)  -->
<svg version="1.1" id="Ebene_2" xmlns="http://www.w3.org/2000/svg" xmlns:xlink="http://www.w3.org/1999/xlink" x="0px" y="0px"
	 viewBox="0 0 50 50" style="enable-background:new 0 0 50 50;" xml:space="preserve">
<style type="text/css">
	.st0{clip-path:url(#SVGID_2_);fill:#F9BA00;}
	.st1{clip-path:url(#SVGID_4_);fill:#FFFFFF;}
	.st2{clip-path:url(#SVGID_6_);fill:#FFFFFF;}
	.st3{fill:#FFFFFF;}
</style>
<g>
	<g>
		<g>
			<defs>
				<rect id="SVGID_1_" width="50" height="50"/>
			</defs>
			<clipPath id="SVGID_2_">
				<use xlink:href="#SVGID_1_"  style="overflow:visible;"/>
			</clipPath>
			<path class="st0" d="M6.2,0C6.2,0,0,0,0,6.2v37.5c0,0,0,6.2,6.2,6.2h37.5c0,0,6.2,0,6.2-6.2V6.2c0,0,0-6.2-6.2-6.2H6.2z"/>
		</g>
	</g>
</g>
<g>
	<g>
		<defs>
			<rect id="SVGID_3_" x="4.2" y="7.7" width="41.7" height="34.8"/>
		</defs>
		<clipPath id="SVGID_4_">
			<use xlink:href="#SVGID_3_"  style="overflow:visible;"/>
		</clipPath>
		<path class="st1" d="M26.9,21.1c-0.1,0,0.2-2.6,0.2-3.8c0-1.7-0.5-2.9-2.1-2.9c-0.4-0.7-1.1-1.2-3.1-1.2c-2,0-3,1.2-4.9,1.2
			c-0.8,0-1,1.4-1,2.9c0,1.6,0.2,3.8,0.2,3.8c-0.5,0.1-1,1.2-0.7,2.4c0.3,1.2,1.2,2,1.7,2c0,0,0.3,2.5,0.9,3.1V30
			c0,1.1,0,1.4-1.3,1.9c1.1,1.3,2.8,2.2,4.7,2.2c1.9,0,3.6-0.8,4.7-2.2C25.1,31.4,25,31.1,25,30v-1.5c0.6-0.6,0.9-3.1,0.9-3.1
			c0.5,0,1.4-0.8,1.7-2C27.9,22.3,27.4,21.2,26.9,21.1"/>
	</g>
	<g>
		<defs>
			<rect id="SVGID_5_" x="4.2" y="7.7" width="41.7" height="34.8"/>
		</defs>
		<clipPath id="SVGID_6_">
			<use xlink:href="#SVGID_5_"  style="overflow:visible;"/>
		</clipPath>
		<path class="st2" d="M38.2,31.3c-3.4,0-6.3-2.8-6.3-6.3c0-3.5,2.8-6.3,6.3-6.3c3.5,0,6.3,2.8,6.3,6.3
			C44.5,28.5,41.7,31.3,38.2,31.3 M33.8,35.4c-0.8-0.8-2.5-1.6-6.1-2.9c-1.4,1.9-3.6,3.1-6.1,3.1s-4.7-1.2-6.1-3.1
			c-3.6,1.3-5.3,2.2-6.1,2.9C7,32.6,5.6,29,5.6,25.1c0-8.8,7.2-16,16-16c6.2,0,11.6,3.6,14.2,8.8c-3,1-5.2,3.9-5.2,7.2
			c0,3.4,2.2,6.2,5.2,7.2C35.2,33.4,34.6,34.4,33.8,35.4 M38.2,17.4c-0.4,0-0.7,0-1.1,0.1c-2.8-5.8-8.8-9.8-15.6-9.8
			C12,7.7,4.2,15.5,4.2,25.1c0,9.6,7.8,17.4,17.4,17.4c6.9,0,12.8-4,15.6-9.8c0.3,0,0.7,0.1,1.1,0.1c4.2,0,7.6-3.4,7.6-7.6
			C45.9,20.8,42.5,17.4,38.2,17.4"/>
	</g>
</g>
<polygon class="st3" points="38.9,21.6 37.5,21.6 37.5,24.4 34.8,24.4 34.8,25.8 37.5,25.8 37.5,28.5 38.9,28.5 38.9,25.8 
	41.7,25.8 41.7,24.4 38.9,24.4 "/>
</svg>
