<svg xmlns="http://www.w3.org/2000/svg" xmlns:xlink="http://www.w3.org/1999/xlink" width="500" height="500" viewBox="0 0 500 500"><defs><path id="a" d="M11 9h480v480H11z"/></defs><clipPath id="b"><use xlink:href="#a" overflow="visible"/></clipPath><path clip-path="url(#b)" fill="#F9BA00" d="M71 9S11 9 11 69v360s0 60 60 60h360s60 0 60-60V69s0-60-60-60H71z"/><path clip-path="url(#b)" fill="none" stroke="#FFF" stroke-width="20.065" stroke-linejoin="round" stroke-miterlimit="10" d="M276.535 431.834h85.119m-85.119-42.205h85.119M46.715 347.423h408.569m-178.749-42.206h85.119M157.37 431.834h68.095m-68.095-42.205h68.095m-68.095-84.412h68.095M190.71 118.811l-85.825 85.113h52.484v59.087h68.095v-59.087h51.07l-85.824-85.113zm85.825 110.436v33.765h85.119v-92.853h59.583L319.095 68.865 251 136.394"/></svg>