<svg xmlns="http://www.w3.org/2000/svg" xmlns:xlink="http://www.w3.org/1999/xlink" viewBox="411 823 50 50">
  <defs>
    <style>
      .cls-1 {
        clip-path: url(#clip-path);
      }

      .cls-2 {
        fill: #f9ba00;
      }

      .cls-3 {
        fill: #fff;
      }
    </style>
    <clipPath id="clip-path">
      <rect id="Rectangle_43" data-name="Rectangle 43" width="50" height="50" transform="translate(0 0)"/>
    </clipPath>
  </defs>
  <g id="Vorteile" transform="translate(400 814)">
    <g id="Group_37" data-name="Group 37" class="cls-1" transform="translate(11 9)">
      <path id="Path_180" data-name="Path 180" class="cls-2" d="M17.25,9S11,9,11,15.25v37.5S11,59,17.25,59h37.5S61,59,61,52.75V15.25S61,9,54.75,9Z" transform="translate(-11 -9)"/>
    </g>
    <g id="Group_38" data-name="Group 38" class="cls-1" transform="translate(11 9)">
      <path id="Path_181" data-name="Path 181" class="cls-3" d="M223.115,224.218a3.234,3.234,0,1,1,3.243-3.234,3.242,3.242,0,0,1-3.243,3.234" transform="translate(-198.115 -196.005)"/>
    </g>
    <g id="Group_39" data-name="Group 39" class="cls-1" transform="translate(11 9)">
      <path id="Path_182" data-name="Path 182" class="cls-3" d="M94.88,155.682a6.942,6.942,0,1,1,6.941,6.923,6.932,6.932,0,0,1-6.941-6.923m6.941-10.827c-9.581,0-17.346,10.827-17.346,10.827s7.766,10.827,17.346,10.827,17.347-10.827,17.347-10.827-7.766-10.827-17.347-10.827" transform="translate(-76.821 -130.703)"/>
    </g>
    <g id="Group_40" data-name="Group 40" class="cls-1" transform="translate(11 9)">
      <path id="Path_183" data-name="Path 183" class="cls-3" d="M95.037,158.962c-4.7,0-8.967-2.827-11.724-5.2a35.607,35.607,0,0,1-4.634-4.841,35.609,35.609,0,0,1,4.634-4.841c2.757-2.372,7.029-5.2,11.724-5.2s8.967,2.827,11.724,5.2a35.655,35.655,0,0,1,4.633,4.84c-1.586,2.021-8.389,10.042-16.357,10.042m17.988-10.5a35.413,35.413,0,0,0-5.206-5.55,26.914,26.914,0,0,0-5.682-3.833,15.106,15.106,0,0,0-14.2,0,26.9,26.9,0,0,0-5.682,3.833,35.44,35.44,0,0,0-5.207,5.55.784.784,0,0,0,0,.915,35.439,35.439,0,0,0,5.207,5.55,26.9,26.9,0,0,0,5.682,3.833,15.106,15.106,0,0,0,14.2,0,26.914,26.914,0,0,0,5.682-3.833,35.412,35.412,0,0,0,5.206-5.55.785.785,0,0,0,0-.915" transform="translate(-70.037 -123.943)"/>
    </g>
    <g id="Group_41" data-name="Group 41" class="cls-1" transform="translate(11 9)">
      <path id="Path_184" data-name="Path 184" class="cls-3" d="M240.833,64.392a1.181,1.181,0,0,1-1.183-1.179v-2.5a1.183,1.183,0,0,1,2.365,0v2.5a1.181,1.181,0,0,1-1.183,1.179" transform="translate(-215.832 -54.271)"/>
    </g>
    <g id="Group_42" data-name="Group 42" class="cls-1" transform="translate(11 9)">
      <path id="Path_185" data-name="Path 185" class="cls-3" d="M79.371,137.565a1.18,1.18,0,0,1-.836-.345L76.6,135.293a1.181,1.181,0,1,1,1.672-1.668l1.932,1.927a1.179,1.179,0,0,1-.836,2.013" transform="translate(-69.459 -120.334)"/>
    </g>
    <g id="Group_43" data-name="Group 43" class="cls-1" transform="translate(11 9)">
      <path id="Path_186" data-name="Path 186" class="cls-3" d="M150.236,85.049a1.183,1.183,0,0,1-1.067-.67l-1.231-2.559A1.182,1.182,0,0,1,150.07,80.8l1.231,2.56a1.181,1.181,0,0,1-1.065,1.69" transform="translate(-133.569 -72.721)"/>
    </g>
    <g id="Group_44" data-name="Group 44" class="cls-1" transform="translate(11 9)">
      <path id="Path_187" data-name="Path 187" class="cls-3" d="M385.674,137.565a1.179,1.179,0,0,1-.836-2.013l1.932-1.927a1.181,1.181,0,1,1,1.672,1.668l-1.932,1.927a1.181,1.181,0,0,1-.836.345" transform="translate(-345.586 -120.334)"/>
    </g>
    <g id="Group_45" data-name="Group 45" class="cls-1" transform="translate(11 9)">
      <path id="Path_188" data-name="Path 188" class="cls-3" d="M320.832,85.048a1.181,1.181,0,0,1-1.065-1.69L321,80.8a1.182,1.182,0,0,1,2.132,1.021L321.9,84.379a1.183,1.183,0,0,1-1.067.67" transform="translate(-287.499 -72.72)"/>
    </g>
    <g id="Group_46" data-name="Group 46" class="cls-1" transform="translate(11 9)">
      <path id="Path_189" data-name="Path 189" class="cls-3" d="M240.826,396.695a1.181,1.181,0,0,1-1.182-1.18v-2.5a1.183,1.183,0,0,1,2.365,0v2.5a1.181,1.181,0,0,1-1.183,1.18" transform="translate(-215.827 -351.959)"/>
    </g>
    <g id="Group_47" data-name="Group 47" class="cls-1" transform="translate(11 9)">
      <path id="Path_190" data-name="Path 190" class="cls-3" d="M387.606,327.862a1.18,1.18,0,0,1-.836-.345l-1.932-1.927a1.181,1.181,0,1,1,1.672-1.668l1.932,1.927a1.179,1.179,0,0,1-.836,2.013" transform="translate(-345.586 -290.808)"/>
    </g>
    <g id="Group_48" data-name="Group 48" class="cls-1" transform="translate(11 9)">
      <path id="Path_191" data-name="Path 191" class="cls-3" d="M322.065,375.566A1.183,1.183,0,0,1,321,374.9l-1.231-2.559a1.182,1.182,0,0,1,2.132-1.02l1.231,2.559a1.181,1.181,0,0,1-1.065,1.69" transform="translate(-287.5 -332.976)"/>
    </g>
    <g id="Group_49" data-name="Group 49" class="cls-1" transform="translate(11 9)">
      <path id="Path_192" data-name="Path 192" class="cls-3" d="M77.439,327.862a1.179,1.179,0,0,1-.836-2.013l1.932-1.927a1.181,1.181,0,1,1,1.672,1.668l-1.932,1.927a1.181,1.181,0,0,1-.836.345" transform="translate(-69.459 -290.808)"/>
    </g>
    <g id="Group_50" data-name="Group 50" class="cls-1" transform="translate(11 9)">
      <path id="Path_193" data-name="Path 193" class="cls-3" d="M149,375.566a1.181,1.181,0,0,1-1.065-1.69l1.231-2.559a1.182,1.182,0,0,1,2.132,1.02l-1.231,2.559a1.183,1.183,0,0,1-1.067.67" transform="translate(-133.568 -332.976)"/>
    </g>
    <g id="Group_51" data-name="Group 51" class="cls-1" transform="translate(11 9)">
      <path id="Path_194" data-name="Path 194" class="cls-3" d="M229.892,225.295a2.448,2.448,0,1,1-2.454,2.448,2.451,2.451,0,0,1,2.454-2.448" transform="translate(-204.892 -202.764)"/>
    </g>
    <g id="Group_52" data-name="Group 52" class="cls-1" transform="translate(11 9)">
      <path id="Path_195" data-name="Path 195" class="cls-3" d="M223.115,222.645a1.661,1.661,0,1,1,1.666-1.661,1.666,1.666,0,0,1-1.666,1.661m0-4.9a3.234,3.234,0,1,0,3.243,3.234,3.242,3.242,0,0,0-3.243-3.234" transform="translate(-198.115 -196.005)"/>
    </g>
  </g>
</svg>
